<svg width="23" height="23" viewBox="0 0 23 23" fill="none" xmlns="http://www.w3.org/2000/svg">
<g id="icono atras">
<g id="Icon">
<path fill-rule="evenodd" clip-rule="evenodd" d="M7.66682 2.87476C7.91216 2.87476 8.15749 2.96868 8.34437 3.15555L16.011 10.8222C16.3857 11.1969 16.3857 11.8026 16.011 12.1773L8.34437 19.844C7.96966 20.2187 7.36399 20.2187 6.98928 19.844C6.61457 19.4693 6.61457 18.8636 6.98928 18.4889L13.9784 11.4998L6.98928 4.51064C6.61457 4.13593 6.61457 3.53026 6.98928 3.15555C7.17616 2.96868 7.42149 2.87476 7.66682 2.87476Z" fill="#686E7F"/>
<path d="M7.66682 2.87476C7.91216 2.87476 8.15749 2.96868 8.34437 3.15555L16.011 10.8222C16.3857 11.1969 16.3857 11.8026 16.011 12.1773L8.34437 19.844C7.96966 20.2187 7.36399 20.2187 6.98928 19.844C6.61457 19.4693 6.61457 18.8636 6.98928 18.4889L13.9784 11.4998L6.98928 4.51064C6.61457 4.13593 6.61457 3.53026 6.98928 3.15555C7.17616 2.96868 7.42149 2.87476 7.66682 2.87476" stroke="#686E7F" stroke-width="1.27778"/>
</g>
</g>
</svg>
