<svg width="75" height="75" viewBox="0 0 75 75" fill="none" xmlns="http://www.w3.org/2000/svg">
<g id="Group">
<path id="Vector" d="M37.2191 74.9852C57.7747 74.9852 74.4383 58.3216 74.4383 37.766C74.4383 17.2105 57.7747 0.546875 37.2191 0.546875C16.6636 0.546875 0 17.2105 0 37.766C0 58.3216 16.6636 74.9852 37.2191 74.9852Z" fill="white"/>
<path id="Vector_2" opacity="0.3" d="M74.439 37.7639C74.4391 45.1252 72.2563 52.3212 68.1666 58.4419C64.077 64.5626 58.2641 69.3332 51.4632 72.1502C44.6623 74.9673 37.1787 75.7044 29.9589 74.2683C22.7391 72.8322 16.1072 69.2874 10.902 64.0822C5.69677 58.877 2.15198 52.2452 0.715885 45.0253C-0.720211 37.8055 0.0168862 30.3219 2.83397 23.521C5.65104 16.72 10.4216 10.9072 16.5423 6.81756C22.663 2.7279 29.859 0.545099 37.2203 0.545179C42.113 0.526964 46.961 1.47722 51.4848 3.34118C56.0086 5.20515 60.1188 7.94596 63.5785 11.4057C67.0382 14.8654 69.7791 18.9756 71.643 23.4994C73.507 28.0232 74.4572 32.8712 74.439 37.7639Z" fill="#FF7400"/>
<g id="Group_2">
<path id="Vector_3" d="M69.9205 55.5598C67.3631 60.2411 63.8341 64.3214 59.5703 67.527L50.1926 57.0795L40.0288 45.7526L48.6405 37.7285L52.028 41.238L57.2153 46.6036L65.0242 43.4467L69.9205 55.5598Z" fill="#6B6C70"/>
<path id="Vector_4" d="M58.9464 61.2326C58.9561 61.2326 58.9657 61.231 58.9748 61.2278C58.9965 61.2202 59.0144 61.2044 59.0244 61.1837C59.0345 61.1631 59.0361 61.1393 59.0287 61.1175L53.1225 44.066C53.1148 44.0443 53.0988 44.0266 53.0781 44.0165C53.0574 44.0065 53.0336 44.0051 53.0119 44.0125C52.9902 44.02 52.9723 44.0359 52.9623 44.0565C52.9523 44.0772 52.9509 44.101 52.9584 44.1227L58.8646 61.1755C58.8707 61.1923 58.8819 61.2067 58.8965 61.2169C58.9112 61.2272 58.9286 61.2326 58.9464 61.2326Z" fill="#0C0C0C"/>
<g id="Group_3">
<path id="Vector_5" d="M20.6328 16.6549C20.6328 16.6549 21.0381 27.8647 28.5183 28.3794L29.7839 13.5977L20.6328 16.6549Z" fill="#0A0A0A"/>
<path id="Vector_6" d="M22.0739 30.6693C24.5218 30.6693 26.5062 28.6849 26.5062 26.237C26.5062 23.7891 24.5218 21.8047 22.0739 21.8047C19.626 21.8047 17.6416 23.7891 17.6416 26.237C17.6416 28.6849 19.626 30.6693 22.0739 30.6693Z" fill="#0A0A0A"/>
<path id="sk" d="M39.4163 33.5829C39.3758 33.5776 38.9389 40.8463 30.495 40.2125C24.6492 39.7744 22.565 33.5724 22.4304 33.5724C23.0984 33.4614 23.7573 33.3017 24.402 33.0946C25.3223 32.5998 26.4611 32.0851 26.7582 30.2983C26.9288 29.2682 26.639 23.9974 26.7282 22.9551L35.703 24.957C35.5773 27.1584 34.7 32.2622 37.7754 33.1655C38.2865 33.315 38.8376 33.4524 39.4163 33.5829Z" fill="#E98862"/>
<path id="sh" opacity="0.5" d="M35.8281 31.0793C35.6875 30.6264 35.597 30.1595 35.5582 29.6869C35.4596 28.6082 35.4793 27.522 35.617 26.4476C33.793 26.201 32.0747 25.4478 30.6574 24.2734C30.4909 24.889 29.5746 27.5775 29.8283 28.1639C30.3081 29.269 32.5613 31.0793 35.8281 31.0793Z" fill="#0C0C0C"/>
<path id="Vector_7" d="M34.4226 29.1216C30.8685 29.167 26.4257 27.3738 25.8749 22.5998L25.3781 18.2924C24.8273 13.5181 26.8881 9.35892 31.3832 8.84019C35.8783 8.32187 39.6844 11.8042 40.2352 16.5781L40.4552 18.4853C40.6664 20.317 40.7632 29.0414 34.4226 29.1216Z" fill="#E98862"/>
<path id="Vector_8" d="M39.1668 18.3547C39.4746 18.3547 39.7241 18.1052 39.7241 17.7975C39.7241 17.4897 39.4746 17.2402 39.1668 17.2402C38.8591 17.2402 38.6096 17.4897 38.6096 17.7975C38.6096 18.1052 38.8591 18.3547 39.1668 18.3547Z" fill="#0C0C0C"/>
<path id="Vector_9" d="M33.4701 19.007C33.7778 19.007 34.0273 18.7576 34.0273 18.4498C34.0273 18.1421 33.7778 17.8926 33.4701 17.8926C33.1623 17.8926 32.9128 18.1421 32.9128 18.4498C32.9128 18.7576 33.1623 19.007 33.4701 19.007Z" fill="#0C0C0C"/>
<path id="Vector_10" opacity="0.5" d="M36.297 22.693H36.3059C36.488 22.6707 36.6688 22.6384 36.8473 22.5961C37.114 22.5309 37.4658 22.417 37.4382 22.1783C37.407 21.906 36.3233 19.0578 36.1997 18.7336C36.1948 18.7191 36.187 18.7058 36.1767 18.6943C36.1665 18.6829 36.1541 18.6736 36.1402 18.6671C36.1263 18.6606 36.1113 18.6569 36.096 18.6563C36.0806 18.6557 36.0654 18.6582 36.051 18.6637C36.0367 18.6691 36.0236 18.6774 36.0125 18.688C36.0014 18.6986 35.9926 18.7113 35.9866 18.7254C35.9805 18.7395 35.9774 18.7547 35.9773 18.77C35.9772 18.7854 35.9802 18.8005 35.9862 18.8147C36.4486 20.028 37.1902 22.0211 37.2113 22.2042C36.9261 22.3651 36.6064 22.4549 36.2792 22.466C36.2497 22.4693 36.2228 22.4839 36.2039 22.5068C36.185 22.5296 36.1757 22.5588 36.178 22.5883C36.1802 22.6178 36.1939 22.6453 36.216 22.665C36.2381 22.6847 36.267 22.695 36.2966 22.6938L36.297 22.693Z" fill="#0C0C0C"/>
<path id="Vector_11" opacity="0.5" d="M35.4935 24.68C36.2236 24.6383 36.9336 24.4256 37.5664 24.0592C37.5804 24.0524 37.593 24.0429 37.6032 24.0312C37.6134 24.0195 37.6211 24.0058 37.6259 23.991C37.6306 23.9761 37.6323 23.9605 37.6308 23.945C37.6293 23.9295 37.6246 23.9145 37.6171 23.9009C37.6096 23.8872 37.5994 23.8753 37.5871 23.8658C37.5748 23.8562 37.5607 23.8493 37.5456 23.8454C37.5305 23.8415 37.5148 23.8408 37.4994 23.8432C37.4841 23.8456 37.4693 23.8511 37.4562 23.8594C36.0892 24.6156 34.7815 24.6593 33.6763 23.9862C33.654 23.9714 33.6309 23.9579 33.607 23.9457C33.5796 23.9347 33.5489 23.9347 33.5215 23.9459C33.4941 23.957 33.4721 23.9783 33.4601 24.0053C33.448 24.0323 33.447 24.063 33.4571 24.0908C33.4672 24.1186 33.4877 24.1414 33.5142 24.1544C33.5232 24.1589 33.5373 24.1678 33.5576 24.1799C34.1388 24.5355 34.8128 24.7097 35.4935 24.68Z" fill="#0C0C0C"/>
<path id="Vector_12" d="M21.7217 19.5158L25.7495 19.0745C28.8498 18.0735 30.1368 12.9267 30.1368 12.9267C30.1368 12.9267 32.9128 16.0841 41.1404 14.6426C41.1404 14.6426 40.8218 4.03582 28.3095 5.52878C23.9506 6.05075 20.668 10.4186 20.6332 16.1315C20.6097 20.1346 21.7217 19.5158 21.7217 19.5158Z" fill="#0A0A0A"/>
<path id="Vector_13" d="M26.3217 24.0208C24.9556 24.1784 23.6798 22.8455 23.5222 21.479C23.3645 20.1125 24.385 19.2319 25.7511 19.0742L26.5616 19.9082L27.4973 23.8854L26.3217 24.0208Z" fill="#E98862"/>
<path id="Vector_14" d="M37.1944 16.4068C37.5974 16.1839 38.0529 16.0735 38.5131 16.0871C38.7405 16.0921 38.9658 16.1313 39.1814 16.2034C39.3954 16.2739 39.5996 16.3711 39.7893 16.4927C39.8093 16.5043 39.824 16.5233 39.83 16.5457C39.836 16.568 39.8329 16.5918 39.8213 16.6119C39.8098 16.6319 39.7907 16.6465 39.7684 16.6525C39.746 16.6585 39.7222 16.6554 39.7022 16.6439L39.6961 16.6406C39.5163 16.5339 39.3237 16.4502 39.1231 16.3914C38.924 16.332 38.7172 16.303 38.5095 16.3055C38.096 16.3079 37.6905 16.4198 37.3343 16.6297L37.3257 16.635C37.2961 16.6516 37.2611 16.6561 37.2282 16.6475C37.1953 16.6389 37.167 16.6179 37.1493 16.5888C37.1316 16.5598 37.1259 16.525 37.1333 16.4918C37.1407 16.4586 37.1608 16.4296 37.1892 16.4109L37.1944 16.4068Z" fill="#0C0C0C"/>
<path id="Vector_15" d="M33.5854 17.0717C33.1919 16.9474 32.7725 16.9292 32.3697 17.019C32.1667 17.063 31.9716 17.1374 31.791 17.2399C31.6084 17.3418 31.4394 17.4664 31.288 17.6107L31.2832 17.6151C31.2662 17.6309 31.2436 17.6392 31.2205 17.6384C31.1974 17.6375 31.1755 17.6275 31.1598 17.6105C31.144 17.5935 31.1357 17.571 31.1365 17.5478C31.1374 17.5247 31.1474 17.5028 31.1644 17.4871C31.3217 17.3262 31.4987 17.1858 31.6913 17.0693C31.8854 16.9509 32.0962 16.8624 32.3166 16.8066C32.7623 16.6915 33.2308 16.6977 33.6734 16.8245C33.7058 16.8352 33.7327 16.8581 33.7485 16.8883C33.7643 16.9185 33.7677 16.9537 33.7581 16.9865C33.7484 17.0192 33.7263 17.0468 33.6966 17.0636C33.6669 17.0803 33.6318 17.0848 33.5988 17.0761H33.5952L33.5854 17.0717Z" fill="#0C0C0C"/>
<path id="Vector_16" opacity="0.52" d="M35.5697 25.7579C35.7019 25.7522 35.8334 25.7355 35.9628 25.708C35.9925 25.7018 36.0185 25.684 36.035 25.6586C36.0516 25.6333 36.0574 25.6023 36.0512 25.5727C36.0449 25.543 36.0272 25.517 36.0018 25.5005C35.9764 25.4839 35.9455 25.4781 35.9158 25.4843C35.7139 25.5434 35.5017 25.5587 35.2935 25.5291C35.0852 25.4995 34.8856 25.4258 34.7082 25.3129C34.6847 25.2937 34.6545 25.2846 34.6244 25.2877C34.5942 25.2907 34.5665 25.3056 34.5473 25.3291C34.5281 25.3526 34.519 25.3827 34.5221 25.4129C34.5251 25.4431 34.54 25.4708 34.5635 25.49C34.858 25.6927 35.2135 25.7873 35.5697 25.7579Z" fill="#0C0C0C"/>
<path id="Vector_17" opacity="0.1" d="M32.6981 22.7814C33.2842 22.7609 33.7471 22.3958 33.732 21.9658C33.717 21.5359 33.2297 21.2041 32.6436 21.2246C32.0576 21.2451 31.5947 21.6102 31.6098 22.0401C31.6248 22.4701 32.1121 22.8019 32.6981 22.7814Z" fill="#0C0C0C"/>
<path id="Vector_18" opacity="0.1" d="M38.971 21.5947C38.9872 22.0238 39.4744 22.3553 40.0604 22.3355C40.1616 22.3325 40.2622 22.3189 40.3607 22.295C40.43 21.7908 40.4725 21.3033 40.4956 20.851C40.3379 20.7973 40.1717 20.7734 40.0053 20.7805C39.4193 20.7988 38.9564 21.1639 38.971 21.5947Z" fill="#0C0C0C"/>
</g>
<path id="Vector_19" d="M52.028 41.2378C52.0037 43.7747 51.1328 46.802 50.8208 50.4574C50.7397 51.4341 50.4966 53.9385 50.1926 57.0793C49.7185 62.0356 49.0782 68.5845 48.6563 73.1882C42.1421 75.2875 35.1754 75.5512 28.5212 73.9505C21.8669 72.3499 15.7823 68.9466 10.9355 64.1145C10.7531 59.4135 10.5136 54.6356 10.1655 51.5313C9.41575 44.7635 9.61837 40.484 10.7004 38.4821C12.4714 35.2116 15.6243 34.2147 18.9227 33.7649C20.9372 33.4934 23.964 33.2988 23.964 33.2988C23.964 33.2988 24.2194 38.4861 30.3351 38.7738C38.659 39.1669 38.1038 33.2988 38.144 33.2988C41.1631 33.2988 46.8853 34.0202 49.0782 35.5156C51.4043 37.0961 52.0564 38.9724 52.028 41.2378Z" fill="#6B6C70"/>
<path id="Vector_20" d="M28.3883 71.0142C29.5375 71.0142 30.6663 70.7097 31.6597 70.1318C32.6531 69.5538 33.4756 68.723 34.0436 67.7239L45.8398 45.7412L36.0156 39.4621L28.5082 52.1742L20.3934 38.1523L9.85669 45.8834L22.6766 67.6214C23.2312 68.6393 24.0479 69.4906 25.042 70.087C26.0361 70.6835 27.1715 71.0034 28.3307 71.0138L28.3883 71.0142Z" fill="#6B6C70"/>
<path id="Vector_21" d="M50.3939 57.4151C50.4159 57.4151 50.4371 57.4068 50.4531 57.3917C50.4692 57.3766 50.4789 57.356 50.4802 57.334L50.8231 52.6574C50.8246 52.6343 50.8169 52.6116 50.8017 52.5942C50.7865 52.5768 50.7651 52.5661 50.742 52.5646C50.719 52.5633 50.6964 52.5711 50.679 52.5862C50.6616 52.6014 50.6508 52.6227 50.6488 52.6456L50.3064 57.3227C50.3048 57.3457 50.3125 57.3685 50.3277 57.3859C50.3429 57.4033 50.3643 57.4139 50.3874 57.4155L50.3939 57.4151Z" fill="#0C0C0C"/>
<g id="Group_4">
<path id="Vector_22" d="M56.354 46.5909H49.0764C48.8885 46.5909 48.7029 46.5492 48.533 46.4689C48.3631 46.3886 48.2131 46.2715 48.0939 46.1263C47.9747 45.981 47.8892 45.8111 47.8435 45.6288C47.7978 45.4465 47.7932 45.2563 47.8299 45.072L50.71 30.5991C50.7677 30.309 50.9247 30.0482 51.1541 29.8615C51.3834 29.6748 51.6706 29.5739 51.9663 29.5762L59.0583 29.6358C59.244 29.6373 59.4272 29.6796 59.5949 29.7596C59.7625 29.8397 59.9106 29.9554 60.0287 30.0989C60.1467 30.2423 60.2319 30.4098 60.2782 30.5897C60.3246 30.7696 60.3309 30.9575 60.2968 31.1401L57.6022 45.5534C57.5478 45.8448 57.3932 46.1079 57.1653 46.2974C56.9374 46.4868 56.6504 46.5906 56.354 46.5909Z" fill="#262626"/>
<path id="Vector_23" d="M50.7467 38.5301C50.8582 38.3628 51.0205 38.2357 51.2097 38.1675C51.3989 38.0994 51.605 38.0938 51.7976 38.1516C51.7987 38.1344 51.8051 38.118 51.8158 38.1046C51.8264 38.0945 51.8395 38.0875 51.8538 38.0843C51.8681 38.0811 51.883 38.0818 51.8969 38.0863L51.3319 37.5226C51.1531 37.3516 51.046 37.1191 51.0323 36.872C51.0185 36.625 51.0991 36.382 51.2578 36.1922C51.4052 36.0276 51.606 35.9204 51.8247 35.8892C52.0435 35.8581 52.2662 35.9051 52.4537 36.022C52.4537 36.0127 52.461 36.005 52.4638 35.996L52.2312 35.7638C52.0712 35.6098 51.9694 35.4053 51.943 35.1848C51.9166 34.9644 51.9671 34.7416 52.0861 34.5541C52.1631 34.4381 52.2649 34.3406 52.3841 34.2686C52.5034 34.1967 52.6371 34.1521 52.7757 34.1381C52.9142 34.1241 53.0542 34.1411 53.1854 34.1877C53.3166 34.2343 53.4358 34.3095 53.5345 34.4078L54.0711 34.9432C54.0735 34.9399 54.0711 34.9355 54.0755 34.9326C54.08 34.9298 54.0852 34.9294 54.0893 34.9262C53.9753 34.7462 53.9259 34.5329 53.9492 34.3212C53.9725 34.1094 54.067 33.9119 54.2173 33.761C54.5821 33.3461 55.2272 33.5491 55.5746 33.8952L58.8494 37.1032L58.7497 36.9537L58.2861 35.7715C58.191 35.5432 58.1862 35.2873 58.2727 35.0556C58.3591 34.8238 58.5304 34.6336 58.7518 34.5233C58.868 34.4704 58.9938 34.4416 59.1215 34.4389C59.2492 34.4361 59.3761 34.4594 59.4945 34.5074C59.6129 34.5553 59.7203 34.6269 59.8101 34.7177C59.9 34.8085 59.9703 34.9167 60.017 35.0356L62.7285 41.7409C62.7285 41.7409 57.0319 45.8632 55.6657 44.5007L50.8922 39.7398C50.7322 39.5859 50.6303 39.3813 50.6038 39.1609C50.5773 38.9404 50.6278 38.7176 50.7467 38.5301Z" fill="#E98862"/>
<g id="Group_5" opacity="0.2">
<path id="Vector_24" d="M57.2151 37.9684C57.1988 37.9842 57.177 37.9931 57.1543 37.9931C57.1316 37.9931 57.1098 37.9842 57.0935 37.9684L54.0776 35.0558C54.061 35.0397 54.0516 35.0176 54.0513 34.9945C54.051 34.9714 54.0599 34.9491 54.076 34.9326C54.0921 34.916 54.1141 34.9066 54.1372 34.9063C54.1603 34.906 54.1826 34.9148 54.1992 34.931L57.2151 37.8435C57.2309 37.8598 57.2398 37.8816 57.2398 37.9043C57.2398 37.927 57.2309 37.9489 57.2151 37.9651V37.9684Z" fill="#0C0C0C"/>
<path id="Vector_25" d="M55.9659 39.3347C55.9496 39.3505 55.9278 39.3594 55.9051 39.3594C55.8824 39.3594 55.8606 39.3505 55.8443 39.3347L52.4786 36.0841C52.4626 36.0679 52.4536 36.0461 52.4536 36.0233C52.4536 36.0006 52.4626 35.9787 52.4786 35.9625C52.4949 35.9469 52.5164 35.938 52.539 35.9375C52.5615 35.9371 52.5834 35.9451 52.6002 35.9601L55.9663 39.2107C55.9821 39.2269 55.991 39.2487 55.991 39.2714C55.991 39.2942 55.9821 39.316 55.9663 39.3322L55.9659 39.3347Z" fill="#0C0C0C"/>
<path id="Vector_26" d="M54.6244 40.8213C54.6082 40.8372 54.5863 40.8462 54.5636 40.8462C54.5409 40.8462 54.519 40.8372 54.5028 40.8213L51.8176 38.2277C51.801 38.2115 51.7916 38.1895 51.7913 38.1664C51.791 38.1433 51.7998 38.121 51.816 38.1045C51.8321 38.0879 51.8541 38.0784 51.8772 38.0781C51.9003 38.0778 51.9226 38.0867 51.9392 38.1028L54.624 40.6965C54.64 40.7126 54.649 40.7345 54.649 40.7573C54.649 40.78 54.64 40.8019 54.624 40.8181L54.6244 40.8213Z" fill="#0C0C0C"/>
</g>
</g>
<path id="Vector_27" d="M69.9847 55.4419C69.9604 55.4824 69.9405 55.5189 69.9203 55.5594C67.6519 59.7124 64.6152 63.3966 60.9718 66.4162L53.2192 44.0299L63.659 39.957L69.9847 55.4419Z" fill="#6B6C70"/>
<g id="Group_6">
<path id="Vector_28" d="M37.6223 40.4865L43.8612 44.4734L47.2467 42.1719C47.4298 42.0528 47.5661 41.8741 47.6325 41.6661C47.699 41.4581 47.6916 41.2335 47.6115 41.0303C47.535 40.8494 47.4028 40.6977 47.234 40.5972C47.0652 40.4968 46.8688 40.4528 46.6733 40.4719C46.6744 40.4559 46.67 40.44 46.6607 40.4269C46.6567 40.4208 46.6547 40.4143 46.6486 40.4103C46.6457 40.407 46.6423 40.4042 46.6385 40.4022C46.6347 40.3989 46.6305 40.3961 46.6259 40.3941C46.6149 40.3892 46.6031 40.3864 46.591 40.386L47.2317 39.9527C47.4353 39.8206 47.5811 39.6161 47.6398 39.3806C47.6985 39.1451 47.6656 38.8961 47.5479 38.6839C47.436 38.4983 47.2623 38.358 47.0573 38.2878C46.8523 38.2175 46.6291 38.2217 46.4269 38.2997C46.4289 38.2889 46.4289 38.2777 46.4269 38.2669L46.6875 38.0906C46.87 37.9716 47.0058 37.7931 47.0717 37.5853C47.1376 37.3776 47.1295 37.1535 47.049 36.951C46.9571 36.7306 46.7831 36.5545 46.5639 36.4599C46.3446 36.3653 46.0971 36.3596 45.8737 36.444C45.8697 36.44 45.8656 36.4335 45.8616 36.4294L47.8137 35.1999C48.0092 35.0769 48.1478 34.8813 48.1991 34.656C48.2504 34.4308 48.2101 34.1944 48.087 33.9989C47.964 33.8034 47.7684 33.6648 47.5432 33.6135C47.3179 33.5623 47.0816 33.6026 46.8861 33.7256L42.1968 36.6779L42.6236 36.0599C42.7574 35.8569 42.8092 35.6107 42.7684 35.371C42.7276 35.1313 42.5974 34.916 42.4039 34.7687C42.3016 34.6963 42.1857 34.6455 42.0631 34.6194C41.9406 34.5932 41.814 34.5923 41.691 34.6167C41.5681 34.6411 41.4514 34.6902 41.3481 34.7612C41.2448 34.8321 41.157 34.9233 41.0901 35.0293L37.6223 40.4865Z" fill="#E98862"/>
<g id="Group_7" opacity="0.2">
<path id="Vector_29" d="M43.9134 37.7516C43.9234 37.7498 43.9331 37.746 43.9417 37.7406L45.8517 36.5682C45.87 36.5556 45.8827 36.5365 45.8873 36.5147C45.8919 36.493 45.8879 36.4703 45.8763 36.4514C45.8646 36.4325 45.8462 36.4188 45.8247 36.4131C45.8033 36.4074 45.7804 36.4101 45.7609 36.4207L43.851 37.5927C43.8337 37.6034 43.8207 37.6198 43.8143 37.6391C43.8078 37.6584 43.8084 37.6793 43.8158 37.6982C43.8233 37.7171 43.8371 37.7328 43.8549 37.7426C43.8728 37.7524 43.8934 37.7555 43.9134 37.7516Z" fill="#0C0C0C"/>
<path id="Vector_30" d="M44.8655 39.2995C44.8759 39.2973 44.8857 39.2933 44.8947 39.2877L46.3885 38.3556C46.3981 38.3496 46.4065 38.3417 46.4131 38.3324C46.4197 38.3231 46.4245 38.3126 46.427 38.3015C46.4296 38.2904 46.4299 38.279 46.428 38.2677C46.4262 38.2565 46.4221 38.2457 46.416 38.2361C46.41 38.2264 46.4021 38.218 46.3928 38.2114C46.3836 38.2048 46.3731 38.2001 46.362 38.1975C46.3509 38.195 46.3394 38.1946 46.3281 38.1965C46.3169 38.1984 46.3061 38.2025 46.2965 38.2085L44.8023 39.1406C44.7848 39.1513 44.7717 39.1678 44.7652 39.1872C44.7587 39.2066 44.7593 39.2277 44.7669 39.2467C44.7745 39.2657 44.7885 39.2815 44.8066 39.2911C44.8246 39.3008 44.8455 39.3037 44.8655 39.2995Z" fill="#0C0C0C"/>
<path id="Vector_31" d="M45.8866 40.9808C45.8962 40.9789 45.9054 40.9753 45.9138 40.9703L46.6299 40.5464C46.6497 40.5347 46.6641 40.5156 46.6698 40.4932C46.6755 40.4709 46.6722 40.4473 46.6605 40.4274C46.6488 40.4076 46.6296 40.3932 46.6073 40.3875C46.585 40.3818 46.5614 40.3851 46.5415 40.3968L45.8254 40.8211C45.8057 40.8329 45.7914 40.852 45.7857 40.8742C45.78 40.8965 45.7833 40.9201 45.795 40.9399C45.8043 40.9553 45.818 40.9675 45.8344 40.9748C45.8508 40.9821 45.869 40.9842 45.8866 40.9808Z" fill="#0C0C0C"/>
</g>
</g>
<path id="Vector_32" d="M28.3887 71.1009C29.553 71.0995 30.6962 70.7904 31.7026 70.2049C32.709 69.6194 33.5427 68.7783 34.1194 67.7668L45.9156 45.7821C45.9259 45.7628 45.9286 45.7404 45.9231 45.7192C45.9176 45.698 45.9044 45.6797 45.886 45.6678L36.063 39.3908C36.0532 39.3844 36.0423 39.3801 36.0308 39.3781C36.0192 39.3762 36.0075 39.3766 35.9961 39.3795C35.9847 39.3822 35.974 39.3871 35.9646 39.3941C35.9552 39.4011 35.9473 39.4099 35.9414 39.42L28.509 52.0052L22.942 42.4845C22.9304 42.4647 22.9113 42.4503 22.889 42.4445C22.8668 42.4388 22.8431 42.4421 22.8233 42.4537C22.8034 42.4654 22.7891 42.4845 22.7833 42.5067C22.7775 42.529 22.7808 42.5527 22.7925 42.5725L28.4336 52.2176C28.4412 52.2307 28.4521 52.2415 28.4652 52.2491C28.4783 52.2566 28.4931 52.2606 28.5082 52.2605C28.5231 52.2607 28.5377 52.2571 28.5508 52.25C28.5638 52.2429 28.5749 52.2326 28.5828 52.22L36.0448 39.5853L45.7255 45.7724L33.9674 67.6846C33.4059 68.6691 32.5941 69.4877 31.6144 70.0575C30.6346 70.6273 29.5216 70.9279 28.3883 70.9291H28.3303C27.1866 70.9183 26.0665 70.6023 25.0858 70.0139C24.1051 69.4254 23.2992 68.5857 22.7515 67.5816L11.2706 48.0078C11.2652 47.9974 11.2577 47.9883 11.2486 47.9809C11.2395 47.9735 11.229 47.968 11.2177 47.9648C11.2065 47.9616 11.1947 47.9607 11.183 47.9622C11.1714 47.9636 11.1602 47.9674 11.1501 47.9733C11.14 47.9793 11.1312 47.9872 11.1242 47.9966C11.1172 48.006 11.1122 48.0167 11.1095 48.0281C11.1068 48.0395 11.1064 48.0514 11.1084 48.0629C11.1104 48.0745 11.1147 48.0855 11.1211 48.0953L22.6008 67.6655C23.1632 68.696 23.9905 69.5577 24.9972 70.1616C26.0039 70.7655 27.1536 71.0897 28.3275 71.1009H28.3887Z" fill="#0C0C0C"/>
<path id="Vector_33" d="M25.724 57.1864C25.7394 57.1865 25.7545 57.1825 25.7678 57.1748C25.7811 57.1671 25.7921 57.156 25.7998 57.1426L28.5839 52.2155C28.5952 52.1955 28.5981 52.1718 28.592 52.1496C28.5858 52.1274 28.5711 52.1085 28.551 52.0972C28.531 52.0859 28.5073 52.0829 28.4851 52.0891C28.4629 52.0953 28.4441 52.11 28.4327 52.13L25.6486 57.0583C25.6373 57.0784 25.6345 57.1021 25.6406 57.1243C25.6468 57.1464 25.6614 57.1653 25.6814 57.1767C25.6946 57.1834 25.7092 57.1867 25.724 57.1864Z" fill="#0C0C0C"/>
</g>
</g>
</svg>
