<svg width="17" height="17" viewBox="0 0 17 17" fill="none" xmlns="http://www.w3.org/2000/svg">
<g id="Group">
<path id="Vector" d="M8.63864 16.0146C13.0496 16.0146 16.6254 12.4388 16.6254 8.02781C16.6254 3.61683 13.0496 0.0410156 8.63864 0.0410156C4.22765 0.0410156 0.651855 3.61683 0.651855 8.02781C0.651855 12.4388 4.22765 16.0146 8.63864 16.0146Z" fill="url(#paint0_linear_1203_16382)"/>
<path id="Vector_2" d="M12.7245 8.01367C12.7138 9.0903 12.2785 10.1192 11.5134 10.8767C10.7483 11.6342 9.71516 12.0592 8.63848 12.0592C7.5618 12.0592 6.52863 11.6342 5.76352 10.8767C4.99841 10.1192 4.56321 9.0903 4.55249 8.01367H12.7245Z" fill="white"/>
<g id="Group_2">
<path id="Vector_3" d="M5.75467 5.51861C6.13896 5.51861 6.45048 5.20707 6.45048 4.82278C6.45048 4.43848 6.13896 4.12695 5.75467 4.12695C5.37037 4.12695 5.05884 4.43848 5.05884 4.82278C5.05884 5.20707 5.37037 5.51861 5.75467 5.51861Z" fill="#0C0C0C"/>
<path id="Vector_4" d="M11.5222 5.51861C11.9065 5.51861 12.2181 5.20707 12.2181 4.82278C12.2181 4.43848 11.9065 4.12695 11.5222 4.12695C11.1379 4.12695 10.8264 4.43848 10.8264 4.82278C10.8264 5.20707 11.1379 5.51861 11.5222 5.51861Z" fill="#0C0C0C"/>
</g>
</g>
<defs>
<linearGradient id="paint0_linear_1203_16382" x1="8.63865" y1="0.0410156" x2="8.63865" y2="16.0146" gradientUnits="userSpaceOnUse">
<stop stop-color="#F89B32"/>
<stop offset="1" stop-color="#FDBF21"/>
</linearGradient>
</defs>
</svg>
