<svg width="33" height="21" viewBox="0 0 33 21" fill="none" xmlns="http://www.w3.org/2000/svg">
<g id="Group 7199">
<g id="Group 7195">
<g id="Group 7189">
<g id="Group 7188">
<g id="Vector 4 (Stroke)">
<path fill-rule="evenodd" clip-rule="evenodd" d="M22.5204 1.00476C18.9996 1.11297 15.5 3.5 17.5 6.169L18 6.98772L18.5 9.5V15L29.2013 19.517L29.2827 19.4828C29.9678 19.1944 30.4455 18.8796 30.8074 18.4323C31.1662 17.9888 31.3965 17.4324 31.6198 16.6911L31.6289 16.6609V14.0981C31.9275 12.4821 32.0495 11.2787 31.9818 10.1908C31.9137 9.09615 31.6543 8.12992 31.2054 6.98772C29.6328 2.64035 26.0561 0.89609 22.5204 1.00476ZM30.8636 7.27494C31.2702 8.33221 31.4985 9.22147 31.5604 10.2174C31.6252 11.2584 31.509 12.4273 31.2103 14.0394L31.2067 14.0588V14.0603C29.61 13.9247 28.4136 13.7357 27.3776 13.4045C26.3267 13.0684 25.4328 12.5834 24.4516 11.8464V10.4557L21.9863 8.83659C21.7495 8.17926 21.7661 7.62722 21.9555 7.22372C22.1417 6.82724 22.5105 6.54015 23.054 6.43354C24.9552 7.25726 26.7732 7.26238 29.825 7.27097C30.1561 7.2719 30.5018 7.27287 30.8636 7.27494ZM31.2067 14.487C29.5804 14.3502 28.3375 14.1575 27.2498 13.8097C26.1152 13.4469 25.1583 12.9182 24.1131 12.1222L24.0294 12.0584V10.686L21.6403 9.11693L21.6158 9.05267C21.3264 8.2939 21.3151 7.59311 21.5738 7.04198C21.8352 6.48532 22.3547 6.11903 23.0447 6.00321L23.1067 5.99281L23.1642 6.01823C25.0021 6.83021 26.731 6.83571 29.8404 6.84559C30.1162 6.84646 30.4028 6.84737 30.7013 6.84889C29.1497 2.90568 25.8344 1.32827 22.5333 1.42973C19.1564 1.53352 16.5 3.5 18 6.43354L18.5 9.5V14.487L29.2005 19.056C29.8023 18.7939 30.1902 18.522 30.48 18.1638C30.7814 17.7913 30.991 17.3081 31.2067 16.5977V14.487Z" fill="#686E7F"/>
<path d="M18.5 9.5L18 6.43354C16.5 3.5 19.1564 1.53352 22.5333 1.42973C25.8344 1.32827 29.1497 2.90568 30.7013 6.84889C30.4028 6.84737 30.1162 6.84646 29.8404 6.84559C26.731 6.83571 25.0021 6.83021 23.1642 6.01823L23.1067 5.99281L23.0447 6.00321C22.3547 6.11903 21.8352 6.48532 21.5738 7.04198C21.3151 7.59311 21.3264 8.2939 21.6158 9.05267L21.6403 9.11693L24.0294 10.686V12.0584L24.1131 12.1222C25.1583 12.9182 26.1152 13.4469 27.2498 13.8097C28.3375 14.1575 29.5804 14.3502 31.2067 14.487V16.5977C30.991 17.3081 30.7814 17.7913 30.48 18.1638C30.1902 18.522 29.8023 18.7939 29.2005 19.056L18.5 14.487V9.5ZM18.5 9.5V15L29.2013 19.517L29.2827 19.4828C29.9678 19.1944 30.4455 18.8796 30.8074 18.4323C31.1662 17.9888 31.3965 17.4324 31.6198 16.6911L31.6289 16.6609V14.0981C31.9275 12.4821 32.0495 11.2787 31.9818 10.1908C31.9137 9.09615 31.6543 8.12992 31.2054 6.98772C29.6328 2.64035 26.0561 0.89609 22.5204 1.00476C18.9996 1.11297 15.5 3.5 17.5 6.169L18 6.98772L18.5 9.5ZM31.5604 10.2174C31.4985 9.22147 31.2702 8.33221 30.8636 7.27494C30.5018 7.27287 30.1561 7.2719 29.825 7.27097C26.7732 7.26238 24.9552 7.25726 23.054 6.43354C22.5105 6.54015 22.1417 6.82724 21.9555 7.22372C21.7661 7.62722 21.7495 8.17926 21.9863 8.83659L24.4516 10.4557V11.8464C25.4328 12.5834 26.3267 13.0684 27.3776 13.4045C28.4136 13.7357 29.61 13.9247 31.2067 14.0603V14.0588L31.2103 14.0394C31.509 12.4273 31.6252 11.2584 31.5604 10.2174Z" stroke="#686E7F" stroke-width="1.2"/>
</g>
</g>
<path id="Ellipse 46" d="M21.9908 13.2277C21.9908 13.1939 21.9624 13.1592 21.9185 13.1592C21.8747 13.1592 21.8463 13.1939 21.8463 13.2277C21.8463 13.2616 21.8747 13.2963 21.9185 13.2963C21.9624 13.2963 21.9908 13.2616 21.9908 13.2277Z" fill="white" fill-opacity="0.01" stroke="#686E7F" stroke-width="1.2"/>
</g>
<path id="Ellipse 47" d="M22.8894 7.90907C22.8894 7.99259 22.9555 8.05311 23.0282 8.05311C23.101 8.05311 23.1671 7.99259 23.1671 7.90907C23.1671 7.82556 23.101 7.76504 23.0282 7.76504C22.9555 7.76504 22.8894 7.82556 22.8894 7.90907Z" fill="white" fill-opacity="0.01" stroke="#686E7F" stroke-width="1.2"/>
<g id="Ellipse 47 (Stroke)">
<mask id="path-5-inside-1_1139_56824" fill="white">
<path fill-rule="evenodd" clip-rule="evenodd" d="M23.0282 8.44053C22.7368 8.44053 22.5005 8.20259 22.5005 7.90907C22.5005 7.61556 22.7368 7.37762 23.0282 7.37762C23.3197 7.37762 23.556 7.61556 23.556 7.90907C23.556 8.20259 23.3197 8.44053 23.0282 8.44053ZM23.0282 8.65311C22.6202 8.65311 22.2894 8.31999 22.2894 7.90907C22.2894 7.49815 22.6202 7.16504 23.0282 7.16504C23.4363 7.16504 23.7671 7.49815 23.7671 7.90907C23.7671 8.31999 23.4363 8.65311 23.0282 8.65311Z"/>
</mask>
<path fill-rule="evenodd" clip-rule="evenodd" d="M23.0282 8.44053C22.7368 8.44053 22.5005 8.20259 22.5005 7.90907C22.5005 7.61556 22.7368 7.37762 23.0282 7.37762C23.3197 7.37762 23.556 7.61556 23.556 7.90907C23.556 8.20259 23.3197 8.44053 23.0282 8.44053ZM23.0282 8.65311C22.6202 8.65311 22.2894 8.31999 22.2894 7.90907C22.2894 7.49815 22.6202 7.16504 23.0282 7.16504C23.4363 7.16504 23.7671 7.49815 23.7671 7.90907C23.7671 8.31999 23.4363 8.65311 23.0282 8.65311Z" fill="#686E7F"/>
<path d="M23.7005 7.90907C23.7005 7.54779 23.4074 7.24053 23.0282 7.24053V9.64053C22.0661 9.64053 21.3005 8.85739 21.3005 7.90907H23.7005ZM23.0282 8.57762C23.4074 8.57762 23.7005 8.27036 23.7005 7.90907H21.3005C21.3005 6.96076 22.0661 6.17762 23.0282 6.17762V8.57762ZM22.356 7.90907C22.356 8.27036 22.6491 8.57762 23.0282 8.57762V6.17762C23.9904 6.17762 24.756 6.96076 24.756 7.90907H22.356ZM23.0282 7.24053C22.6491 7.24053 22.356 7.54779 22.356 7.90907H24.756C24.756 8.85739 23.9904 9.64053 23.0282 9.64053V7.24053ZM23.4894 7.90907C23.4894 7.66519 23.2909 7.45311 23.0282 7.45311V9.85311C21.9495 9.85311 21.0894 8.9748 21.0894 7.90907H23.4894ZM23.0282 8.36504C23.2909 8.36504 23.4894 8.15296 23.4894 7.90907H21.0894C21.0894 6.84335 21.9495 5.96504 23.0282 5.96504V8.36504ZM22.5671 7.90907C22.5671 8.15296 22.7656 8.36504 23.0282 8.36504V5.96504C24.107 5.96504 24.9671 6.84335 24.9671 7.90907H22.5671ZM23.0282 7.45311C22.7656 7.45311 22.5671 7.66519 22.5671 7.90907H24.9671C24.9671 8.9748 24.107 9.85311 23.0282 9.85311V7.45311Z" fill="#686E7F" mask="url(#path-5-inside-1_1139_56824)"/>
</g>
<path id="Ellipse 48" d="M21.412 12.7984C21.412 12.6471 21.2891 12.5172 21.1287 12.5172C20.9682 12.5172 20.8453 12.6471 20.8453 12.7984C20.8453 12.9497 20.9682 13.0795 21.1287 13.0795C21.2891 13.0795 21.412 12.9497 21.412 12.7984Z" fill="#C4C4C4" fill-opacity="0.01" stroke="#686E7F" stroke-width="1.2"/>
<path id="Ellipse 48 (Stroke)" d="M21.412 12.7984C21.412 12.6471 21.2891 12.5172 21.1287 12.5172C20.9682 12.5172 20.8453 12.6471 20.8453 12.7984C20.8453 12.9497 20.9682 13.0795 21.1287 13.0795C21.2891 13.0795 21.412 12.9497 21.412 12.7984ZM21.1287 13.0109C21.0121 13.0109 20.9176 12.9158 20.9176 12.7984C20.9176 12.681 21.0121 12.5858 21.1287 12.5858C21.2453 12.5858 21.3398 12.681 21.3398 12.7984C21.3398 12.9158 21.2453 13.0109 21.1287 13.0109Z" fill="#686E7F" stroke="#686E7F" stroke-width="1.2"/>
</g>
<g id="Group 7194">
<g id="Group 7189_2">
<g id="Group 7188_2">
<path id="Vector 4 (Stroke)_2" fill-rule="evenodd" clip-rule="evenodd" d="M9.52041 1.00476C5.99961 1.11297 2.48878 3.05945 1.02318 6.12058L1 6.169L1.32527 13.2661L16.2013 19.517L16.2827 19.4828C16.9678 19.1944 17.4455 18.8796 17.8074 18.4323C18.1662 17.9888 18.3965 17.4324 18.6198 16.6911L18.6289 16.6609V14.0981C18.9275 12.4821 19.0495 11.2787 18.9818 10.1908C18.9137 9.09615 18.6543 8.12992 18.2054 6.98772C16.6328 2.64035 13.0561 0.89609 9.52041 1.00476ZM17.8636 7.27494C18.2702 8.33221 18.4985 9.22147 18.5604 10.2174C18.6252 11.2584 18.509 12.4273 18.2103 14.0394L18.2067 14.0588V14.0603C16.61 13.9247 15.4136 13.7357 14.3776 13.4045C13.3267 13.0684 12.4328 12.5834 11.4516 11.8464V10.4557L8.9863 8.83659C8.74946 8.17926 8.76605 7.62722 8.95551 7.22372C9.14166 6.82724 9.51047 6.54015 10.054 6.43354C11.9552 7.25726 13.7732 7.26238 16.825 7.27097C17.1561 7.2719 17.5018 7.27287 17.8636 7.27494ZM18.2067 14.487C16.5804 14.3502 15.3375 14.1575 14.2498 13.8097C13.1152 13.4469 12.1583 12.9182 11.1131 12.1222L11.0294 12.0584V10.686L8.64028 9.11693L8.61578 9.05267C8.32645 8.2939 8.31506 7.59311 8.57383 7.04198C8.83519 6.48532 9.35466 6.11903 10.0447 6.00321L10.1067 5.99281L10.1642 6.01823C12.0021 6.83021 13.731 6.83571 16.8404 6.84559C17.1162 6.84646 17.4028 6.84737 17.7013 6.84889C16.1497 2.90568 12.8344 1.32827 9.53329 1.42973C6.15637 1.53352 2.82484 3.39329 1.42669 6.25723L1.73469 12.9775L16.2005 19.056C16.8023 18.7939 17.1902 18.522 17.48 18.1638C17.7814 17.7913 17.991 17.3081 18.2067 16.5977V14.487Z" fill="#686E7F" stroke="#686E7F" stroke-width="1.2"/>
</g>
<path id="Ellipse 46_2" d="M8.9908 13.2277C8.9908 13.1939 8.96241 13.1592 8.91855 13.1592C8.87468 13.1592 8.84629 13.1939 8.84629 13.2277C8.84629 13.2616 8.87468 13.2963 8.91855 13.2963C8.96241 13.2963 8.9908 13.2616 8.9908 13.2277Z" fill="white" fill-opacity="0.01" stroke="#686E7F" stroke-width="1.2"/>
</g>
<path id="Ellipse 47_2" d="M9.88941 7.90907C9.88941 7.99259 9.95552 8.05311 10.0282 8.05311C10.101 8.05311 10.1671 7.99259 10.1671 7.90907C10.1671 7.82556 10.101 7.76504 10.0282 7.76504C9.95552 7.76504 9.88941 7.82556 9.88941 7.90907Z" fill="white" fill-opacity="0.01" stroke="#686E7F" stroke-width="1.2"/>
<g id="Ellipse 47 (Stroke)_2">
<mask id="path-12-inside-2_1139_56824" fill="white">
<path fill-rule="evenodd" clip-rule="evenodd" d="M10.0282 8.44053C9.73678 8.44053 9.5005 8.20259 9.5005 7.90907C9.5005 7.61556 9.73678 7.37762 10.0282 7.37762C10.3197 7.37762 10.556 7.61556 10.556 7.90907C10.556 8.20259 10.3197 8.44053 10.0282 8.44053ZM10.0282 8.65311C9.6202 8.65311 9.28941 8.31999 9.28941 7.90907C9.28941 7.49815 9.6202 7.16504 10.0282 7.16504C10.4363 7.16504 10.7671 7.49815 10.7671 7.90907C10.7671 8.31999 10.4363 8.65311 10.0282 8.65311Z"/>
</mask>
<path fill-rule="evenodd" clip-rule="evenodd" d="M10.0282 8.44053C9.73678 8.44053 9.5005 8.20259 9.5005 7.90907C9.5005 7.61556 9.73678 7.37762 10.0282 7.37762C10.3197 7.37762 10.556 7.61556 10.556 7.90907C10.556 8.20259 10.3197 8.44053 10.0282 8.44053ZM10.0282 8.65311C9.6202 8.65311 9.28941 8.31999 9.28941 7.90907C9.28941 7.49815 9.6202 7.16504 10.0282 7.16504C10.4363 7.16504 10.7671 7.49815 10.7671 7.90907C10.7671 8.31999 10.4363 8.65311 10.0282 8.65311Z" fill="#686E7F"/>
<path d="M10.7005 7.90907C10.7005 7.54779 10.4074 7.24053 10.0282 7.24053V9.64053C9.06613 9.64053 8.3005 8.85739 8.3005 7.90907H10.7005ZM10.0282 8.57762C10.4074 8.57762 10.7005 8.27036 10.7005 7.90907H8.3005C8.3005 6.96076 9.06613 6.17762 10.0282 6.17762V8.57762ZM9.35599 7.90907C9.35599 8.27036 9.64906 8.57762 10.0282 8.57762V6.17762C10.9904 6.17762 11.756 6.96076 11.756 7.90907H9.35599ZM10.0282 7.24053C9.64906 7.24053 9.35599 7.54779 9.35599 7.90907H11.756C11.756 8.85739 10.9904 9.64053 10.0282 9.64053V7.24053ZM10.4894 7.90907C10.4894 7.66519 10.2909 7.45311 10.0282 7.45311V9.85311C8.94954 9.85311 8.08941 8.9748 8.08941 7.90907H10.4894ZM10.0282 8.36504C10.2909 8.36504 10.4894 8.15296 10.4894 7.90907H8.08941C8.08941 6.84335 8.94954 5.96504 10.0282 5.96504V8.36504ZM9.56709 7.90907C9.56709 8.15296 9.76565 8.36504 10.0282 8.36504V5.96504C11.107 5.96504 11.9671 6.84335 11.9671 7.90907H9.56709ZM10.0282 7.45311C9.76565 7.45311 9.56709 7.66519 9.56709 7.90907H11.9671C11.9671 8.9748 11.107 9.85311 10.0282 9.85311V7.45311Z" fill="#686E7F" mask="url(#path-12-inside-2_1139_56824)"/>
</g>
<path id="Ellipse 48_2" d="M8.41202 12.7984C8.41202 12.6471 8.28911 12.5172 8.12867 12.5172C7.96822 12.5172 7.84531 12.6471 7.84531 12.7984C7.84531 12.9497 7.96822 13.0795 8.12867 13.0795C8.28911 13.0795 8.41202 12.9497 8.41202 12.7984Z" fill="#C4C4C4" fill-opacity="0.01" stroke="#686E7F" stroke-width="1.2"/>
<path id="Ellipse 48 (Stroke)_2" d="M8.41202 12.7984C8.41202 12.6471 8.28911 12.5172 8.12867 12.5172C7.96822 12.5172 7.84531 12.6471 7.84531 12.7984C7.84531 12.9497 7.96822 13.0795 8.12867 13.0795C8.28911 13.0795 8.41202 12.9497 8.41202 12.7984ZM8.12867 13.0109C8.01208 13.0109 7.91757 12.9158 7.91757 12.7984C7.91757 12.681 8.01208 12.5858 8.12867 12.5858C8.24525 12.5858 8.33976 12.681 8.33976 12.7984C8.33976 12.9158 8.24525 13.0109 8.12867 13.0109Z" fill="#686E7F" stroke="#686E7F" stroke-width="1.2"/>
</g>
</g>
</svg>
