<svg width="74" height="74" viewBox="0 0 74 74" fill="none" xmlns="http://www.w3.org/2000/svg">
<g id="Group">
<path id="Vector" d="M73.157 36.5078C73.1526 42.4057 71.7203 48.2149 68.9826 53.4389C66.2448 58.6629 62.2829 63.1464 57.4356 66.5063C52.5882 69.8661 46.9994 72.0024 41.1468 72.7326C35.2943 73.4628 29.3519 72.7651 23.8276 70.6992C21.2368 69.7296 18.7661 68.465 16.4645 66.9304C12.0653 64.0073 8.34946 60.1684 5.57121 55.6764V55.6723C2.60808 50.8677 0.799407 45.4414 0.287286 39.8199C-0.224836 34.1983 0.573548 28.5345 2.61971 23.2735C4.66587 18.0126 7.90408 13.2977 12.0799 9.49944C16.2557 5.70115 21.2554 2.92288 26.6862 1.38291C32.1169 -0.157054 37.8308 -0.416766 43.3788 0.62418C48.9269 1.66513 54.158 3.97837 58.6612 7.38218C63.1644 10.786 66.817 15.1876 69.3319 20.2413C71.8469 25.2949 73.1558 30.8629 73.1558 36.5078H73.157Z" fill="white"/>
<path id="Vector_2" opacity="0.2" d="M73.157 36.5078C73.1526 42.4057 71.7203 48.2149 68.9826 53.4389C66.2448 58.6629 62.2829 63.1464 57.4356 66.5063C52.5882 69.8661 46.9994 72.0024 41.1468 72.7326C35.2943 73.4628 29.3519 72.7651 23.8276 70.6992C21.2368 69.7296 18.7661 68.465 16.4645 66.9304C12.0653 64.0073 8.34946 60.1684 5.57121 55.6764V55.6723C2.60808 50.8677 0.799407 45.4414 0.287286 39.8199C-0.224836 34.1983 0.573548 28.5345 2.61971 23.2735C4.66587 18.0126 7.90408 13.2977 12.0799 9.49944C16.2557 5.70115 21.2554 2.92288 26.6862 1.38291C32.1169 -0.157054 37.8308 -0.416766 43.3788 0.62418C48.9269 1.66513 54.158 3.97837 58.6612 7.38218C63.1644 10.786 66.817 15.1876 69.3319 20.2413C71.8469 25.2949 73.1558 30.8629 73.1558 36.5078H73.157Z" fill="#FF7400"/>
<g id="Group_2">
<path id="Vector_3" d="M30.5575 14.5139C30.5575 14.5139 27.8779 12.5768 27.1298 8.00629C26.5507 4.46718 29.8718 6.69934 29.8718 6.69934C29.8718 6.69934 29.4799 4.14622 31.3489 4.36263C33.218 4.57904 34.3178 7.24522 34.3178 7.24522" fill="#0C0C0C"/>
<path id="Vector_4" d="M40.9919 4.46289C40.9919 4.46289 50.2638 5.26449 47.1774 17.8696L46.36 17.9413L44.6984 18.0868" fill="#0C0C0C"/>
<g id="Group_3">
<path id="sk" d="M32.2131 31.0791C32.2537 31.0738 32.7055 38.565 41.4076 37.9117C47.4321 37.4602 49.5804 31.0685 49.7186 31.0685C49.0301 30.9541 48.351 30.7894 47.6866 30.5757C46.7379 30.0659 45.5643 29.5355 45.2583 27.6936C45.082 26.6314 45.3799 21.1993 45.2891 20.125L36.0416 22.1894C36.1704 24.4588 37.075 29.7182 33.9051 30.6491C33.3778 30.8031 32.8097 30.9445 32.2131 31.0791Z" fill="#E98862"/>
<path id="sh" opacity="0.52" d="M35.9119 28.4993C36.0566 28.0324 36.1498 27.551 36.1899 27.0639C36.2916 25.9522 36.2714 24.8327 36.1295 23.7254C38.0091 23.4719 39.78 22.6962 41.2406 21.4863C41.4124 22.1206 42.3567 24.8905 42.0953 25.4943C41.6009 26.6335 39.2783 28.4993 35.9119 28.4993Z" fill="#0C0C0C"/>
<path id="Vector_5" d="M37.9746 27.0931C41.6154 26.6911 45.9334 24.2969 45.8945 19.3442L45.8596 14.8755C45.8191 9.92283 43.1878 5.92822 38.5245 5.9651C33.8612 6.00157 30.4072 10.0436 30.4461 14.9962L30.4619 16.9747C30.4789 17.6537 30.5422 18.3307 30.6516 19.001C30.9276 20.7752 31.3535 23.473 32.5989 25.278C33.7753 26.9829 35.6484 27.3501 37.9746 27.0931Z" fill="#E98862"/>
<path id="Vector_6" d="M32.0345 17.8946C32.3516 17.8946 32.6087 17.6375 32.6087 17.3203C32.6087 17.0032 32.3516 16.7461 32.0345 16.7461C31.7173 16.7461 31.4602 17.0032 31.4602 17.3203C31.4602 17.6375 31.7173 17.8946 32.0345 17.8946Z" fill="#0C0C0C"/>
<path id="Vector_7" d="M37.291 17.4708C37.6082 17.4708 37.8653 17.2137 37.8653 16.8965C37.8653 16.5794 37.6082 16.3223 37.291 16.3223C36.9739 16.3223 36.7168 16.5794 36.7168 16.8965C36.7168 17.2137 36.9739 17.4708 37.291 17.4708Z" fill="#0C0C0C"/>
<path id="Vector_8" d="M45.6165 20.8545C47.0349 20.8436 48.1697 19.3186 48.1595 17.9014C48.1494 16.4842 46.9932 15.713 45.576 15.7227L44.8534 16.6783L44.3979 20.8642L45.6165 20.8545Z" fill="#E98862"/>
</g>
<path id="Vector_9" d="M44.1602 18.6066C44.1602 18.6066 43.5378 11.6107 41.4045 11.2216C39.9837 10.9627 36.5937 13.04 33.4031 12.4994C32.0074 12.2627 30.6948 12.634 30.574 13.2937C30.5262 13.5547 29.5832 9.83567 31.7018 6.9547C33.3889 4.66095 39.0487 3.90677 41.6452 4.59408C48.8336 6.49879 45.8749 16.0251 45.8749 16.0251L45.6058 18.447L44.1602 18.6066Z" fill="#0C0C0C"/>
<g id="Group_4" opacity="0.52">
<path id="Vector_10" d="M35.2153 21.0931H35.2064C34.7497 21.098 33.9833 21.055 33.9793 20.7134C33.9764 20.4297 34.7192 17.3668 34.8039 17.0187C34.8112 16.9887 34.8301 16.9628 34.8564 16.9467C34.8827 16.9306 34.9144 16.9257 34.9444 16.9329C34.9743 16.9402 35.0002 16.9591 35.0163 16.9854C35.0324 17.0117 35.0373 17.0434 35.0301 17.0734C34.6998 18.4302 34.2098 20.518 34.2119 20.711C34.5254 20.8406 34.8657 20.8919 35.2035 20.8605C35.2338 20.8599 35.263 20.8711 35.2852 20.8917C35.3073 20.9123 35.3205 20.9407 35.322 20.9709C35.3236 21.0011 35.3133 21.0307 35.2933 21.0534C35.2734 21.0762 35.2454 21.0907 35.2153 21.0931Z" fill="#0C0C0C"/>
</g>
<path id="Vector_11" d="M33.5901 14.204C33.1136 14.0825 32.6131 14.0916 32.1413 14.2304C31.909 14.297 31.6881 14.3982 31.486 14.5307C31.2858 14.6606 31.1028 14.8152 30.9414 14.991C30.9133 15.0183 30.8971 15.0556 30.8965 15.0947C30.8959 15.1339 30.9109 15.1716 30.9381 15.1998C30.9654 15.2279 31.0027 15.244 31.0418 15.2446C31.0809 15.2452 31.1187 15.2302 31.1468 15.203L31.1553 15.1953C31.3065 15.0479 31.4756 14.9202 31.6587 14.8152C31.8387 14.7108 32.0336 14.6345 32.2366 14.5886C32.638 14.4935 33.0575 14.5065 33.4523 14.6263L33.4673 14.6312C33.4951 14.6401 33.5243 14.6436 33.5534 14.6412C33.5825 14.6389 33.6108 14.6308 33.6368 14.6176C33.6627 14.6043 33.6858 14.586 33.7047 14.5638C33.7236 14.5416 33.738 14.5159 33.7469 14.4881C33.7559 14.4604 33.7593 14.4311 33.757 14.402C33.7547 14.373 33.7466 14.3446 33.7333 14.3187C33.7201 14.2927 33.7018 14.2696 33.6796 14.2507C33.6574 14.2318 33.6316 14.2175 33.6039 14.2085L33.5901 14.204Z" fill="#0C0C0C"/>
<path id="Vector_12" d="M36.9887 14.3622C37.3561 14.1762 37.7661 14.0906 38.1773 14.1142C38.3849 14.1238 38.5898 14.1648 38.7852 14.2358C38.9836 14.3073 39.1722 14.4037 39.3464 14.5227L39.3562 14.5288C39.3884 14.5462 39.4259 14.551 39.4614 14.5424C39.497 14.5337 39.5281 14.5122 39.5487 14.482C39.5693 14.4517 39.578 14.4149 39.573 14.3786C39.5681 14.3424 39.5499 14.3092 39.5219 14.2856C39.3323 14.1407 39.1252 14.0202 38.9055 13.927C38.6833 13.8319 38.448 13.7707 38.2077 13.7454C37.7189 13.6909 37.2244 13.769 36.7763 13.9715C36.7498 13.9838 36.726 14.0011 36.7063 14.0225C36.6865 14.0439 36.6712 14.069 36.6611 14.0963C36.6511 14.1236 36.6465 14.1527 36.6476 14.1818C36.6488 14.2109 36.6557 14.2395 36.6679 14.266C36.6801 14.2924 36.6974 14.3162 36.7188 14.336C36.7402 14.3557 36.7653 14.3711 36.7926 14.3811C36.82 14.3912 36.849 14.3958 36.8781 14.3946C36.9073 14.3935 36.9359 14.3866 36.9623 14.3744L36.9729 14.3695L36.9887 14.3622Z" fill="#0C0C0C"/>
<path id="Vector_13" d="M36.618 6.88687C36.9087 5.33666 36.2908 3.91986 35.2377 3.72235C34.1847 3.52484 33.0953 4.62142 32.8045 6.17162C32.5138 7.72183 33.1317 9.13863 34.1848 9.33614C35.2378 9.53365 36.3272 8.43707 36.618 6.88687Z" fill="#0C0C0C"/>
<path id="Vector_14" d="M61.5706 48.6904C61.2095 52.5404 60.9583 58.6273 60.7966 63.8876C55.8287 68.2636 49.7659 71.2087 43.2552 72.4085C36.7444 73.6083 30.03 73.0177 23.8287 70.6999C23.6305 67.4133 23.318 62.3152 23.0267 57.7033C22.7345 53.0996 22.4634 48.9782 22.3499 47.6246C21.892 42.2509 20.3236 38.7171 21.2881 35.7385C21.5769 34.8571 22.0649 34.0542 22.7142 33.392C25.134 30.8349 31.3745 30.6484 33.8831 30.6484C33.9277 30.6484 33.3765 36.4558 41.6117 36.0667C47.6618 35.783 47.9175 30.6484 47.9175 30.6484C47.9175 30.6484 50.9124 30.843 52.9058 31.1104C56.1681 31.5522 58.32 32.6585 60.0306 34.3687C61.6233 35.9654 62.5959 37.6886 61.5706 48.6904Z" fill="#367CFF"/>
<path id="Vector_15" d="M34.0375 41.9719L23.0267 57.6999V57.704L17.1342 66.1171C16.9311 66.4043 16.7077 66.6765 16.4656 66.9317C12.0664 64.0086 8.35051 60.1697 5.57227 55.6777V55.6736L10.0301 34.3653L20.6883 36.5942L21.2885 35.7391V35.735L22.5529 33.9316L34.0375 41.9719Z" fill="#367CFF"/>
<path id="Vector_16" d="M18.0858 48.1574L16.0767 60.6953L16.2743 60.727L18.2835 48.1891L18.0858 48.1574Z" fill="#0C0C0C"/>
<g id="Group_5">
<path id="Vector_17" d="M22.7175 32.8716C22.7951 32.7772 22.8528 32.6678 22.8868 32.5504C22.9208 32.4329 22.9305 32.3097 22.9153 32.1883C22.9002 32.067 22.8604 31.95 22.7986 31.8445C22.7367 31.739 22.6539 31.6473 22.5554 31.5748C22.3601 31.4404 22.1209 31.3854 21.8866 31.4211C21.6522 31.4568 21.4402 31.5804 21.2938 31.7669L20.8505 32.3517L22.1473 27.1056C22.1817 26.9949 22.1931 26.8783 22.1809 26.7629C22.1686 26.6476 22.1329 26.536 22.0759 26.435C22.019 26.334 21.942 26.2457 21.8496 26.1755C21.7573 26.1053 21.6516 26.0547 21.539 26.0269C21.4264 25.999 21.3093 25.9945 21.1949 26.0135C21.0805 26.0325 20.9712 26.0747 20.8737 26.1376C20.7762 26.2004 20.6926 26.2824 20.628 26.3787C20.5633 26.475 20.5191 26.5835 20.4979 26.6975L19.9577 28.8823C19.9522 28.8789 19.9463 28.8762 19.9402 28.8742C19.9494 28.6414 19.8682 28.4141 19.7134 28.2399C19.5587 28.0658 19.3425 27.9583 19.1103 27.9401C18.8979 27.928 18.6879 27.9896 18.5158 28.1146C18.3436 28.2395 18.2199 28.4201 18.1656 28.6258L18.0822 28.9204C18.0718 28.922 18.0619 28.9256 18.053 28.9309C18.063 28.7197 17.9984 28.5117 17.8704 28.3434C17.7425 28.1751 17.5593 28.0573 17.3531 28.0106C17.1203 27.9665 16.8794 28.0125 16.6792 28.1392C16.4789 28.2658 16.3342 28.4638 16.2743 28.693L16.0688 29.4192C16.0651 29.4092 16.0595 29.3999 16.0522 29.3921C16.0449 29.3842 16.0361 29.3779 16.0264 29.3734C16.0166 29.369 16.006 29.3665 15.9953 29.3662C15.9846 29.3658 15.9739 29.3676 15.9639 29.3714C15.9217 29.1843 15.8209 29.0156 15.676 28.89C15.5311 28.7644 15.3498 28.6884 15.1586 28.6732C14.9463 28.661 14.7363 28.7225 14.5641 28.8474C14.392 28.9723 14.2683 29.1528 14.214 29.3585L13.0926 33.2943C12.8465 34.1636 12.8657 35.0866 13.1476 35.945C13.4296 36.8034 13.9615 37.5579 14.6752 38.112L16.9726 39.8951L22.7175 32.8716Z" fill="#E98862"/>
<g id="Group_6" opacity="0.2">
<path id="Vector_18" d="M19.3295 31.09C19.3277 31.0802 19.3277 31.0702 19.3295 31.0604L19.8296 28.9324C19.8321 28.9216 19.8367 28.9114 19.8432 28.9024C19.8497 28.8934 19.8579 28.8857 19.8673 28.8799C19.8767 28.874 19.8872 28.8701 19.8981 28.8683C19.9091 28.8665 19.9203 28.8669 19.9311 28.8694C19.9419 28.8719 19.9521 28.8766 19.9611 28.883C19.9701 28.8895 19.9778 28.8977 19.9836 28.9071C19.9895 28.9165 19.9934 28.927 19.9952 28.938C19.997 28.9489 19.9966 28.9601 19.9941 28.9709L19.494 31.0993C19.4893 31.1185 19.478 31.1353 19.4621 31.147C19.4462 31.1587 19.4268 31.1645 19.4071 31.1634C19.3874 31.1623 19.3687 31.1544 19.3543 31.141C19.3398 31.1276 19.3305 31.1096 19.3279 31.09H19.3295Z" fill="#0C0C0C"/>
<path id="Vector_19" d="M17.6064 30.6825C17.6045 30.6724 17.6045 30.6621 17.6064 30.6521L18.0116 28.9824C18.0143 28.9716 18.019 28.9615 18.0256 28.9525C18.0322 28.9435 18.0405 28.936 18.05 28.9302C18.0596 28.9244 18.0701 28.9206 18.0811 28.9189C18.0921 28.9173 18.1033 28.9178 18.1142 28.9204C18.125 28.9231 18.1351 28.9279 18.1441 28.9344C18.153 28.941 18.1606 28.9493 18.1664 28.9589C18.1721 28.9684 18.176 28.9789 18.1776 28.9899C18.1793 29.0009 18.1788 29.0122 18.1761 29.023L17.7709 30.6926C17.7661 30.7117 17.7548 30.7286 17.7389 30.7403C17.723 30.752 17.7035 30.7577 17.6838 30.7566C17.6641 30.7554 17.6454 30.7474 17.631 30.734C17.6165 30.7205 17.6073 30.7025 17.6047 30.6829L17.6064 30.6825Z" fill="#0C0C0C"/>
<path id="Vector_20" d="M15.7358 30.2513C15.7344 30.242 15.7344 30.2326 15.7358 30.2233L15.9088 29.4302C15.9144 29.4091 15.9279 29.391 15.9465 29.3796C15.9651 29.3682 15.9874 29.3645 16.0087 29.3691C16.03 29.3738 16.0487 29.3865 16.0609 29.4046C16.0731 29.4227 16.0778 29.4448 16.0741 29.4663L15.9011 30.2594C15.8969 30.279 15.8858 30.2965 15.8699 30.3088C15.854 30.321 15.8342 30.3272 15.8142 30.3262C15.7941 30.3252 15.775 30.3172 15.7604 30.3034C15.7457 30.2897 15.7364 30.2712 15.7341 30.2513H15.7358Z" fill="#0C0C0C"/>
</g>
</g>
<g id="Group_7">
<path id="Vector_21" d="M14.7608 47.8516H21.8613C22.0446 47.8516 22.2256 47.811 22.3913 47.7326C22.557 47.6542 22.7033 47.54 22.8195 47.3983C22.9358 47.2566 23.0192 47.0909 23.0637 46.9131C23.1083 46.7353 23.1128 46.5498 23.0771 46.37L20.2678 32.2517C20.2115 31.9686 20.0582 31.7141 19.8343 31.532C19.6105 31.3498 19.3301 31.2515 19.0415 31.254L12.1218 31.3123C11.9405 31.3138 11.7619 31.3551 11.5983 31.4331C11.4348 31.5112 11.2903 31.6241 11.1752 31.764C11.06 31.9039 10.9769 32.0674 10.9317 32.2429C10.8865 32.4184 10.8804 32.6016 10.9137 32.7797L13.5422 46.8397C13.5953 47.1241 13.7461 47.3809 13.9687 47.5658C14.1913 47.7506 14.4715 47.8517 14.7608 47.8516Z" fill="#262626"/>
<path id="Vector_22" d="M13.7633 39.9887C13.8722 39.8256 14.0305 39.7017 14.215 39.6353C14.3994 39.5688 14.6004 39.5633 14.7882 39.6195C14.7884 39.6081 14.7914 39.5969 14.7969 39.5869C14.8024 39.5769 14.8103 39.5684 14.8198 39.5621C14.8294 39.5559 14.8403 39.552 14.8517 39.5509C14.8631 39.5498 14.8745 39.5516 14.8851 39.5559L14.3339 39.006C14.1599 38.8392 14.0556 38.6126 14.0422 38.3719C14.0287 38.1312 14.107 37.8943 14.2614 37.7092C14.4053 37.5487 14.6011 37.444 14.8145 37.4136C15.0279 37.3832 15.2452 37.4291 15.4281 37.543C15.4281 37.5341 15.4354 37.5264 15.4383 37.5179L15.2113 37.2914C15.0552 37.1412 14.9559 36.9416 14.93 36.7266C14.9042 36.5115 14.9534 36.2941 15.0695 36.1112C15.1446 35.9981 15.244 35.903 15.3603 35.8328C15.4767 35.7626 15.6071 35.7192 15.7423 35.7055C15.8775 35.6919 16.014 35.7084 16.142 35.7539C16.27 35.7994 16.3864 35.8727 16.4826 35.9686L17.0062 36.491C17.0086 36.4877 17.0062 36.4833 17.0103 36.4804C17.0143 36.4776 17.02 36.4776 17.024 36.4744C16.9134 36.299 16.8655 36.0914 16.8881 35.8853C16.9107 35.6792 17.0024 35.4868 17.1484 35.3396C17.5022 34.9344 18.134 35.1325 18.4724 35.4705L21.6675 38.5999L21.5702 38.454L21.1175 37.3011C21.0249 37.0782 21.0204 36.8286 21.1048 36.6025C21.1892 36.3765 21.3563 36.1909 21.5722 36.0833C21.6856 36.0316 21.8083 36.0036 21.9329 36.0009C22.0574 35.9983 22.1812 36.021 22.2967 36.0678C22.4121 36.1145 22.5169 36.1843 22.6045 36.2729C22.6921 36.3615 22.7607 36.467 22.8062 36.583L25.4513 43.1238C25.4513 43.1238 19.8945 47.1452 18.562 45.8159L13.9056 41.1717C13.7488 41.0214 13.6489 40.8213 13.6229 40.6056C13.597 40.39 13.6466 40.1719 13.7633 39.9887Z" fill="#E98862"/>
<g id="Group_8" opacity="0.2">
<path id="Vector_23" d="M20.073 39.4388C20.0572 39.4543 20.036 39.4629 20.0139 39.4629C19.9917 39.4629 19.9705 39.4543 19.9547 39.4388L17.0125 36.5976C17.0043 36.5899 16.9978 36.5806 16.9932 36.5704C16.9886 36.5601 16.9861 36.5491 16.9859 36.5378C16.9856 36.5266 16.9876 36.5154 16.9917 36.505C16.9958 36.4945 17.0019 36.485 17.0097 36.4769C17.0176 36.4688 17.0269 36.4624 17.0372 36.458C17.0476 36.4536 17.0587 36.4513 17.0699 36.4512C17.0811 36.4511 17.0923 36.4532 17.1027 36.4575C17.1131 36.4618 17.1225 36.4681 17.1305 36.476L20.0722 39.3169C20.0805 39.3246 20.0871 39.3339 20.0917 39.3443C20.0963 39.3546 20.0987 39.3658 20.099 39.3771C20.0992 39.3885 20.0972 39.3997 20.093 39.4102C20.0888 39.4208 20.0826 39.4303 20.0747 39.4384L20.073 39.4388Z" fill="#0C0C0C"/>
<path id="Vector_24" d="M18.8561 40.7711C18.8403 40.7866 18.819 40.7952 18.7969 40.7952C18.7748 40.7952 18.7536 40.7866 18.7377 40.7711L15.4552 37.6004C15.447 37.5925 15.4406 37.583 15.4361 37.5726C15.4317 37.5622 15.4294 37.5509 15.4294 37.5396C15.4294 37.5283 15.4317 37.517 15.4361 37.5066C15.4406 37.4962 15.447 37.4867 15.4552 37.4788C15.4713 37.4636 15.4927 37.4551 15.5149 37.4551C15.5372 37.4551 15.5585 37.4636 15.5747 37.4788L18.8573 40.6491C18.8654 40.6571 18.8718 40.6665 18.8762 40.677C18.8806 40.6874 18.8828 40.6986 18.8828 40.7099C18.8828 40.7212 18.8806 40.7325 18.8762 40.7429C18.8718 40.7533 18.8654 40.7628 18.8573 40.7707L18.8561 40.7711Z" fill="#0C0C0C"/>
<path id="Vector_25" d="M17.5464 42.222C17.5306 42.2375 17.5093 42.2461 17.4872 42.2461C17.4651 42.2461 17.4439 42.2375 17.428 42.222L14.8089 39.6928C14.7931 39.677 14.7842 39.6555 14.7842 39.6331C14.7842 39.6106 14.7931 39.5892 14.8089 39.5733C14.8167 39.5651 14.8261 39.5586 14.8364 39.554C14.8468 39.5495 14.8579 39.5471 14.8692 39.5469C14.8806 39.5467 14.8918 39.5488 14.9023 39.5529C14.9128 39.5571 14.9224 39.5633 14.9304 39.5713L17.5492 42.1C17.5575 42.1078 17.5641 42.1171 17.5687 42.1275C17.5733 42.1378 17.5758 42.149 17.576 42.1603C17.5762 42.1717 17.5742 42.1829 17.57 42.1934C17.5658 42.204 17.5596 42.2135 17.5517 42.2216L17.5464 42.222Z" fill="#0C0C0C"/>
</g>
</g>
<path id="Vector_26" d="M50.2954 39.4258L39.0329 54.8454L25.5537 39.7613L16.4014 47.3587L34.1921 69.2506C34.5877 69.7598 35.0513 70.2122 35.57 70.5953C38.6094 72.8161 43.4761 71.9512 45.6965 68.911L45.8453 68.7084L61.6162 47.6954L50.2954 39.4258Z" fill="#367CFF"/>
<path id="Vector_27" d="M39.6022 71.9398C38.1394 71.961 36.7074 71.5185 35.5116 70.6758C34.9846 70.2877 34.5136 69.8288 34.1118 69.3121L16.2615 47.3472L25.5666 39.623L25.6306 39.6988L39.0247 55.4819L48.4968 41.7186L48.6621 41.8321L39.0413 55.811L25.5418 39.9015L16.5419 47.3744L34.2686 69.1893C35.032 70.1859 36.0632 70.9445 37.2418 71.3766C38.4204 71.8087 39.6976 71.8964 40.9242 71.6294C42.7872 71.3427 44.4678 70.3485 45.6162 68.8538L45.7645 68.6511L58.0884 52.3598L58.2481 52.4814L45.9254 68.7727L45.7779 68.9754C44.5987 70.5121 42.8721 71.5346 40.9578 71.83C40.5098 71.9044 40.0563 71.9412 39.6022 71.9398Z" fill="#0C0C0C"/>
<path id="Vector_28" d="M39.1111 55.5842L38.9546 55.709L40.8052 58.0316L40.9617 57.9068L39.1111 55.5842Z" fill="#0C0C0C"/>
<path id="Vector_29" d="M34.2668 22.1093C35.7713 22.1506 37.2467 21.6894 38.46 20.7987C38.502 20.768 38.552 20.75 38.6039 20.7467C38.6559 20.7433 38.7078 20.7549 38.7534 20.78C38.7991 20.8051 38.8366 20.8427 38.8616 20.8883C38.8867 20.934 38.8982 20.9859 38.8948 21.0378C38.8292 21.9294 38.4543 23.5751 36.6027 23.8548C35.4072 24.0355 34.5014 23.1472 34.039 22.5511C34.007 22.5098 33.9874 22.4603 33.9826 22.4082C33.9778 22.3562 33.988 22.3039 34.0119 22.2575C34.0358 22.2111 34.0726 22.1725 34.1177 22.1462C34.1629 22.12 34.2146 22.1072 34.2668 22.1093Z" fill="white"/>
</g>
</g>
</svg>
