<svg width="104" height="137" viewBox="0 0 104 137" fill="none" xmlns="http://www.w3.org/2000/svg">
<g id="Group">
<g id="Group_2">
<path id="Vector" d="M74.8496 135.446C74.4038 135.654 74.1534 135.76 74.1506 135.761C74.1209 135.774 74.094 135.792 74.0714 135.815C74.0487 135.838 74.0309 135.865 74.0187 135.895C74.0066 135.925 74.0005 135.957 74.0007 135.989C74.001 136.021 74.0075 136.053 74.0201 136.082C74.0326 136.112 74.0508 136.139 74.0738 136.162C74.0967 136.184 74.1239 136.202 74.1537 136.214C74.1836 136.226 74.2155 136.233 74.2477 136.232C74.2799 136.232 74.3118 136.225 74.3414 136.213C74.352 136.208 74.6024 136.102 75.0575 135.889C75.1166 135.861 75.1624 135.811 75.1847 135.75C75.207 135.689 75.204 135.621 75.1765 135.562C75.1489 135.503 75.099 135.457 75.0377 135.435C74.9764 135.412 74.9087 135.415 74.8496 135.443V135.446Z" fill="#292A2E"/>
<path id="Vector_2" d="M57.8258 62.3147C57.3125 62.2758 56.798 62.2388 56.2822 62.2037C56.2501 62.2015 56.2178 62.2057 56.1873 62.216C56.1567 62.2262 56.1285 62.2424 56.1043 62.2636C56.0553 62.3064 56.0252 62.3669 56.0208 62.4318C56.0164 62.4968 56.038 62.5608 56.0808 62.6098C56.1236 62.6588 56.1841 62.6888 56.249 62.6932C56.7623 62.7281 57.2756 62.7651 57.789 62.8043H57.808C57.8724 62.8058 57.9348 62.7819 57.9817 62.7378C58.0287 62.6937 58.0564 62.6329 58.0588 62.5685C58.0613 62.5041 58.0383 62.4414 57.9948 62.3938C57.9514 62.3463 57.891 62.3177 57.8266 62.3143L57.8258 62.3147Z" fill="#292A2E"/>
<path id="Vector_3" d="M23.2057 60.2825C22.6979 60.1841 22.1926 60.0771 21.7063 59.9652C21.6429 59.9507 21.5764 59.9619 21.5213 59.9964C21.4662 60.0309 21.427 60.0858 21.4125 60.1492C21.3979 60.2126 21.4091 60.2791 21.4436 60.3342C21.4781 60.3893 21.5331 60.4284 21.5965 60.443C22.0893 60.5565 22.5995 60.6643 23.1133 60.7644C23.1288 60.7673 23.1446 60.7688 23.1603 60.7688C23.221 60.7683 23.2794 60.7452 23.3241 60.7041C23.3688 60.6631 23.3967 60.6069 23.4025 60.5465C23.4082 60.4861 23.3914 60.4256 23.3552 60.3769C23.319 60.3282 23.2661 60.2945 23.2066 60.2825H23.2057Z" fill="#292A2E"/>
<path id="Vector_4" d="M30.822 61.1862H30.7851C30.2822 61.1603 29.7793 61.1282 29.2893 61.0906C29.2245 61.0856 29.1603 61.1066 29.1109 61.149C29.0616 61.1914 29.031 61.2516 29.0261 61.3165C29.0212 61.3813 29.0422 61.4455 29.0845 61.4949C29.1269 61.5442 29.1872 61.5748 29.252 61.5797C29.7456 61.6174 30.253 61.6498 30.7576 61.6762H30.7981H30.8102C30.8753 61.6777 30.9383 61.6534 30.9853 61.6085C31.0324 61.5636 31.0597 61.5019 31.0613 61.4368C31.0629 61.3718 31.0385 61.3088 30.9936 61.2618C30.9488 61.2147 30.887 61.1873 30.822 61.1858V61.1862Z" fill="#292A2E"/>
<path id="Vector_5" d="M19.4782 59.3911C18.9837 59.2493 18.4909 59.0973 18.0136 58.9401C17.9518 58.9197 17.8844 58.9247 17.8263 58.954C17.7682 58.9833 17.7241 59.0345 17.7037 59.0963C17.6834 59.1581 17.6884 59.2255 17.7177 59.2836C17.747 59.3417 17.7982 59.3857 17.86 59.4061C18.3434 59.5654 18.8423 59.719 19.3428 59.8624C19.4053 59.8804 19.4724 59.8728 19.5293 59.8413C19.5861 59.8098 19.6282 59.757 19.6461 59.6945C19.6641 59.632 19.6565 59.5649 19.625 59.508C19.5935 59.4511 19.5407 59.4091 19.4782 59.3911Z" fill="#292A2E"/>
<path id="Vector_6" d="M34.6734 61.3534C34.1542 61.3342 33.6408 61.3142 33.1334 61.2934C33.1011 61.2914 33.0688 61.296 33.0383 61.3068C33.0077 61.3177 32.9797 61.3345 32.9559 61.3565C32.9321 61.3784 32.9129 61.4048 32.8995 61.4343C32.8862 61.4638 32.8789 61.4957 32.8781 61.5281C32.8755 61.5931 32.8988 61.6565 32.9428 61.7043C32.9869 61.7522 33.0482 61.7806 33.1132 61.7834C33.6216 61.8047 34.1362 61.8248 34.6568 61.8438H34.6661C34.7312 61.8449 34.794 61.8201 34.8407 61.775C34.8875 61.7298 34.9144 61.6679 34.9156 61.6028C34.9167 61.5378 34.8919 61.475 34.8468 61.4282C34.8016 61.3814 34.7397 61.3545 34.6746 61.3534H34.6734Z" fill="#292A2E"/>
<path id="Vector_7" d="M15.8562 58.1531C15.3801 57.9619 14.9067 57.7588 14.4492 57.5501C14.3907 57.5272 14.3257 57.5276 14.2675 57.5512C14.2094 57.5748 14.1625 57.6198 14.1365 57.6769C14.1105 57.7341 14.1074 57.799 14.1279 57.8584C14.1484 57.9177 14.1909 57.9669 14.2466 57.9959C14.7106 58.2079 15.1912 58.4137 15.6743 58.6078C15.7034 58.6196 15.7345 58.6257 15.7659 58.6257C15.8229 58.6258 15.8782 58.606 15.9222 58.5697C15.9662 58.5334 15.9962 58.4829 16.007 58.4269C16.0178 58.3709 16.0087 58.3129 15.9814 58.2628C15.954 58.2128 15.91 58.1739 15.857 58.1527L15.8562 58.1531Z" fill="#292A2E"/>
<path id="Vector_8" d="M26.9969 60.8688C26.4892 60.8092 25.9769 60.7419 25.4748 60.6686C25.4103 60.6592 25.3447 60.6758 25.2925 60.7147C25.2402 60.7537 25.2056 60.8118 25.1962 60.8763C25.1868 60.9408 25.2034 61.0064 25.2423 61.0586C25.2813 61.1109 25.3394 61.1455 25.4039 61.1549C25.9108 61.2295 26.4276 61.2971 26.9398 61.3575C26.9494 61.3581 26.959 61.3581 26.9686 61.3575C27.0312 61.3576 27.0914 61.3337 27.137 61.2907C27.1825 61.2478 27.2099 61.189 27.2136 61.1265C27.2172 61.064 27.1968 61.0025 27.1565 60.9546C27.1162 60.9067 27.0591 60.876 26.9969 60.8688Z" fill="#292A2E"/>
<path id="Vector_9" d="M53.9645 62.0592C53.4498 62.0298 52.9355 62.0017 52.4217 61.9749C52.3567 61.9716 52.2931 61.9942 52.2448 62.0378C52.1965 62.0814 52.1675 62.1424 52.1641 62.2073C52.1608 62.2723 52.1834 62.336 52.227 62.3843C52.2706 62.4325 52.3316 62.4616 52.3965 62.4649C52.9099 62.4919 53.4232 62.52 53.9365 62.5492H53.9503C54.0153 62.551 54.0784 62.5269 54.1257 62.4822C54.173 62.4375 54.2006 62.3759 54.2024 62.3109C54.2042 62.2459 54.1801 62.1828 54.1354 62.1355C54.0907 62.0882 54.0291 62.0606 53.9641 62.0588L53.9645 62.0592Z" fill="#292A2E"/>
<path id="Vector_10" d="M50.1063 61.8649C49.5908 61.8422 49.0764 61.8208 48.563 61.8008H48.5533C48.4883 61.7995 48.4254 61.8241 48.3785 61.8692C48.3316 61.9143 48.3046 61.9761 48.3033 62.0411C48.302 62.1062 48.3266 62.1691 48.3716 62.2159C48.4167 62.2628 48.4786 62.2899 48.5436 62.2912C49.0569 62.3115 49.5702 62.3329 50.0836 62.3556H50.0945C50.1595 62.357 50.2224 62.3325 50.2694 62.2875C50.3164 62.2426 50.3436 62.1807 50.3449 62.1157C50.3463 62.0507 50.3219 61.9878 50.2769 61.9408C50.2319 61.8938 50.1701 61.8667 50.105 61.8653L50.1063 61.8649Z" fill="#292A2E"/>
<path id="Vector_11" d="M46.2473 61.7152C45.7307 61.6974 45.2162 61.6804 44.7037 61.6642C44.6715 61.6632 44.6394 61.6685 44.6093 61.6799C44.5791 61.6913 44.5515 61.7085 44.5281 61.7305C44.5046 61.7526 44.4857 61.7791 44.4724 61.8084C44.4592 61.8378 44.4518 61.8695 44.4508 61.9017C44.4498 61.9339 44.4551 61.9659 44.4665 61.9961C44.4779 62.0262 44.4951 62.0538 44.5172 62.0773C44.5392 62.1008 44.5657 62.1197 44.595 62.1329C44.6244 62.1462 44.6561 62.1535 44.6883 62.1545C45.2 62.1708 45.714 62.1878 46.2303 62.2056H46.2388C46.3038 62.2067 46.3666 62.182 46.4134 62.1368C46.4602 62.0916 46.4871 62.0297 46.4882 61.9647C46.4894 61.8997 46.4646 61.8368 46.4194 61.7901C46.3742 61.7433 46.3123 61.7164 46.2473 61.7152Z" fill="#292A2E"/>
<path id="Vector_12" d="M12.3994 56.521C11.9503 56.2738 11.5078 56.0136 11.0811 55.7482C11.0538 55.7311 11.0234 55.7196 10.9916 55.7143C10.9599 55.709 10.9274 55.71 10.896 55.7172C10.8647 55.7245 10.835 55.7378 10.8088 55.7565C10.7826 55.7752 10.7603 55.7989 10.7433 55.8262C10.7262 55.8535 10.7147 55.8839 10.7094 55.9156C10.7041 55.9474 10.7051 55.9799 10.7123 56.0112C10.7196 56.0426 10.7329 56.0722 10.7516 56.0984C10.7703 56.1246 10.794 56.1469 10.8213 56.164C11.2545 56.4347 11.7056 56.6993 12.1623 56.9506C12.1905 56.9661 12.2215 56.976 12.2535 56.9796C12.2855 56.9832 12.3179 56.9804 12.3489 56.9715C12.3798 56.9625 12.4087 56.9476 12.4339 56.9275C12.4591 56.9074 12.4801 56.8825 12.4956 56.8543C12.5112 56.8261 12.521 56.7951 12.5246 56.7631C12.5282 56.7311 12.5255 56.6987 12.5165 56.6677C12.5076 56.6368 12.4926 56.6079 12.4725 56.5827C12.4524 56.5575 12.4276 56.5366 12.3994 56.521Z" fill="#292A2E"/>
<path id="Vector_13" d="M38.5297 61.4795L36.9869 61.4316C36.9224 61.4314 36.8602 61.4559 36.8132 61.5001C36.7662 61.5442 36.7378 61.6047 36.734 61.6691C36.732 61.7342 36.7559 61.7973 36.8004 61.8448C36.8449 61.8923 36.9064 61.9202 36.9715 61.9224C37.4821 61.9386 37.9968 61.9544 38.5155 61.9698H38.5228C38.5878 61.9707 38.6505 61.9458 38.6972 61.9004C38.7438 61.8551 38.7705 61.7931 38.7714 61.7281C38.7723 61.6631 38.7474 61.6003 38.702 61.5537C38.6567 61.5071 38.5947 61.4804 38.5297 61.4795Z" fill="#292A2E"/>
<path id="Vector_14" d="M5.08395 27.3361C5.35466 26.9114 5.6428 26.4851 5.93985 26.0681C5.95988 26.0419 5.97443 26.012 5.98263 25.9801C5.99084 25.9482 5.99253 25.9149 5.9876 25.8824C5.98268 25.8498 5.97124 25.8185 5.95398 25.7905C5.93671 25.7624 5.91397 25.7382 5.88711 25.7191C5.86025 25.7 5.82982 25.6866 5.79764 25.6795C5.76546 25.6725 5.73219 25.672 5.69982 25.6781C5.66745 25.6842 5.63663 25.6967 5.60922 25.715C5.58181 25.7332 5.55836 25.7568 5.54027 25.7844C5.23835 26.2079 4.94576 26.6415 4.67059 27.0731C4.65327 27.1002 4.64146 27.1305 4.63584 27.1622C4.63022 27.1939 4.6309 27.2264 4.63785 27.2579C4.64479 27.2893 4.65786 27.3191 4.6763 27.3455C4.69475 27.3719 4.71821 27.3944 4.74536 27.4117C4.7725 27.429 4.80279 27.4408 4.83449 27.4464C4.8662 27.452 4.8987 27.4514 4.93014 27.4444C4.96158 27.4375 4.99135 27.4244 5.01774 27.406C5.04413 27.3875 5.06663 27.3641 5.08395 27.3369V27.3361Z" fill="#292A2E"/>
<path id="Vector_15" d="M1.06684 38.2523H1.08508C1.14692 38.2524 1.20649 38.229 1.25166 38.1868C1.29684 38.1445 1.32422 38.0867 1.32824 38.025C1.36512 37.5253 1.42266 37.0159 1.49925 36.5113C1.50903 36.4468 1.4928 36.3811 1.45411 36.3286C1.41543 36.2761 1.35747 36.2411 1.29298 36.2313C1.22849 36.2215 1.16276 36.2378 1.11024 36.2764C1.05773 36.3151 1.02273 36.3731 1.01295 36.4376C0.934328 36.9547 0.875563 37.4767 0.837874 37.9889C0.835394 38.0213 0.839373 38.0538 0.849574 38.0846C0.859774 38.1155 0.875992 38.144 0.897293 38.1685C0.918595 38.193 0.944556 38.213 0.973662 38.2274C1.00277 38.2418 1.03444 38.2503 1.06684 38.2523Z" fill="#292A2E"/>
<path id="Vector_16" d="M1.43932 41.8214C1.37245 41.3241 1.32544 40.8151 1.30031 40.3073C1.29872 40.2752 1.2908 40.2436 1.27701 40.2145C1.26323 40.1854 1.24385 40.1593 1.21997 40.1377C1.19609 40.1161 1.16819 40.0994 1.13786 40.0885C1.10752 40.0777 1.07535 40.0729 1.04318 40.0745C1.01101 40.0761 0.97947 40.084 0.950359 40.0978C0.921248 40.1116 0.89514 40.131 0.87352 40.1549C0.851901 40.1787 0.835196 40.2066 0.82436 40.237C0.813524 40.2673 0.808763 40.2995 0.81036 40.3317C0.836296 40.8532 0.884119 41.3764 0.953012 41.887C0.961124 41.9458 0.990202 41.9996 1.03488 42.0387C1.07957 42.0777 1.13685 42.0993 1.19617 42.0994C1.20724 42.1 1.21833 42.1 1.2294 42.0994C1.26148 42.095 1.29238 42.0843 1.32031 42.068C1.34825 42.0516 1.37267 42.0299 1.39218 42.004C1.41169 41.9782 1.4259 41.9488 1.43399 41.9174C1.44208 41.8861 1.44389 41.8534 1.43932 41.8214Z" fill="#292A2E"/>
<path id="Vector_17" d="M2.2599 32.5053C2.19837 32.4843 2.13101 32.4886 2.07264 32.5173C2.01427 32.5459 1.96968 32.5966 1.94866 32.6581C1.77967 33.1529 1.62689 33.6546 1.49437 34.1495C1.48607 34.1806 1.48398 34.2131 1.48822 34.245C1.49247 34.2769 1.50296 34.3077 1.5191 34.3356C1.53525 34.3635 1.55673 34.3879 1.58231 34.4075C1.6079 34.4271 1.63709 34.4415 1.66822 34.4498C1.69936 34.4581 1.73182 34.4601 1.76376 34.4559C1.7957 34.4517 1.82649 34.4412 1.85438 34.425C1.88226 34.4089 1.9067 34.3874 1.92628 34.3618C1.94587 34.3362 1.96022 34.307 1.96852 34.2759C2.09779 33.792 2.24734 33.3013 2.4143 32.817C2.42473 32.7864 2.429 32.754 2.42688 32.7218C2.42475 32.6895 2.41627 32.658 2.40192 32.629C2.38757 32.6001 2.36764 32.5742 2.34326 32.553C2.31889 32.5318 2.29056 32.5156 2.2599 32.5053Z" fill="#292A2E"/>
<path id="Vector_18" d="M1.88947 44.0563C1.88106 44.0252 1.86661 43.9961 1.84694 43.9706C1.82727 43.945 1.80276 43.9237 1.77482 43.9076C1.74688 43.8916 1.71605 43.8812 1.68409 43.877C1.65213 43.8729 1.61968 43.8751 1.58857 43.8835C1.55746 43.8919 1.52832 43.9064 1.5028 43.926C1.47728 43.9457 1.45588 43.9702 1.43983 43.9982C1.42378 44.0261 1.41339 44.0569 1.40926 44.0889C1.40512 44.1208 1.40732 44.1533 1.41573 44.1844C1.55068 44.6845 1.70995 45.1858 1.88826 45.6741C1.8993 45.7044 1.9162 45.7322 1.93798 45.7559C1.95976 45.7796 1.986 45.7988 2.0152 45.8124C2.0444 45.826 2.07599 45.8337 2.10817 45.8351C2.14035 45.8364 2.17248 45.8315 2.20274 45.8204C2.23299 45.8094 2.26077 45.7925 2.2845 45.7707C2.30822 45.7489 2.32743 45.7227 2.34101 45.6935C2.3546 45.6643 2.3623 45.6327 2.36368 45.6005C2.36505 45.5683 2.36008 45.5362 2.34903 45.5059C2.17518 45.031 2.02077 44.5431 1.88947 44.0563Z" fill="#292A2E"/>
<path id="Vector_19" d="M102.347 93.7807C102.428 94.284 102.502 94.7939 102.562 95.2972C102.568 95.3569 102.597 95.4121 102.642 95.4521C102.687 95.492 102.745 95.514 102.805 95.5136C102.815 95.5142 102.824 95.5142 102.834 95.5136C102.899 95.5058 102.958 95.4727 102.998 95.4216C103.038 95.3705 103.056 95.3055 103.049 95.2409C102.988 94.731 102.915 94.2135 102.831 93.7009C102.826 93.6691 102.814 93.6387 102.797 93.6114C102.78 93.5841 102.758 93.5604 102.732 93.5417C102.705 93.523 102.676 93.5096 102.644 93.5024C102.613 93.4951 102.581 93.4941 102.549 93.4995C102.517 93.5048 102.487 93.5163 102.459 93.5334C102.432 93.5505 102.408 93.5728 102.39 93.599C102.371 93.6252 102.358 93.6549 102.35 93.6863C102.343 93.7176 102.342 93.7502 102.347 93.7819V93.7807Z" fill="#292A2E"/>
<path id="Vector_20" d="M101.903 91.5247C101.915 91.5788 101.946 91.6271 101.989 91.6617C102.033 91.6963 102.087 91.7151 102.142 91.7152C102.161 91.7152 102.179 91.713 102.197 91.7087C102.229 91.7017 102.258 91.6886 102.285 91.67C102.311 91.6514 102.334 91.6277 102.351 91.6003C102.368 91.573 102.379 91.5425 102.385 91.5107C102.39 91.4788 102.389 91.4463 102.381 91.4149C102.267 90.9185 102.138 90.4119 102.003 89.9094C101.986 89.8466 101.945 89.7932 101.889 89.7609C101.832 89.7286 101.765 89.72 101.702 89.7371C101.64 89.7542 101.586 89.7955 101.554 89.852C101.522 89.9085 101.513 89.9755 101.53 90.0382C101.665 90.5343 101.79 91.0344 101.903 91.5247Z" fill="#292A2E"/>
<path id="Vector_21" d="M2.93414 30.8119C2.96338 30.8254 2.99501 30.833 3.0272 30.8342C3.05939 30.8354 3.09151 30.8302 3.12167 30.8189C3.15183 30.8076 3.17945 30.7904 3.20292 30.7683C3.22638 30.7463 3.24522 30.7197 3.25835 30.6903C3.46503 30.2344 3.69116 29.7728 3.93067 29.3185C3.96098 29.261 3.96718 29.1937 3.94791 29.1316C3.92865 29.0695 3.88549 29.0175 3.82794 28.9872C3.79944 28.9722 3.76826 28.963 3.73619 28.96C3.70412 28.9571 3.67177 28.9604 3.64101 28.97C3.57888 28.9893 3.52695 29.0324 3.49664 29.09C3.25348 29.5528 3.02249 30.0221 2.81175 30.4881C2.79831 30.5174 2.79081 30.549 2.7897 30.5812C2.78858 30.6134 2.79387 30.6455 2.80526 30.6756C2.81664 30.7057 2.8339 30.7333 2.85602 30.7567C2.87815 30.7801 2.9047 30.7988 2.93414 30.8119Z" fill="#292A2E"/>
<path id="Vector_22" d="M5.35239 50.7668C5.33214 50.7418 5.30716 50.721 5.27887 50.7056C5.25058 50.6902 5.21954 50.6805 5.18751 50.6771C5.12284 50.6703 5.05809 50.6894 5.00752 50.7303C4.95695 50.7712 4.9247 50.8305 4.91786 50.8952C4.91102 50.9599 4.93015 51.0246 4.97105 51.0752C5.29526 51.4736 5.63851 51.8687 5.99676 52.2504C6.01882 52.2739 6.04528 52.2928 6.07463 52.306C6.10398 52.3192 6.13564 52.3265 6.16782 52.3275C6.19999 52.3285 6.23205 52.3231 6.26215 52.3117C6.29225 52.3003 6.31981 52.283 6.34325 52.261C6.36669 52.2389 6.38556 52.2125 6.39878 52.1831C6.412 52.1538 6.4193 52.1221 6.42028 52.0899C6.42126 52.0577 6.41589 52.0257 6.40448 51.9956C6.39307 51.9655 6.37585 51.9379 6.35379 51.9145C6.00405 51.5417 5.66687 51.1559 5.35239 50.7668Z" fill="#292A2E"/>
<path id="Vector_23" d="M8.3233 22.7429C8.27501 22.6994 8.2114 22.6767 8.14644 22.68C8.08148 22.6833 8.02048 22.7122 7.9768 22.7604C7.62788 23.147 7.28786 23.5421 6.96123 23.9356C6.94071 23.9604 6.92529 23.9891 6.91583 24.0198C6.90638 24.0506 6.90308 24.083 6.90613 24.115C6.91229 24.1798 6.94392 24.2394 6.99406 24.2809C7.0442 24.3223 7.10874 24.3421 7.17349 24.336C7.23824 24.3298 7.2979 24.2982 7.33933 24.2481C7.65948 23.8602 7.99666 23.4704 8.34072 23.0894C8.3626 23.0657 8.37952 23.0378 8.3905 23.0074C8.40148 22.977 8.4063 22.9448 8.40468 22.9125C8.40306 22.8803 8.39503 22.8487 8.38105 22.8195C8.36708 22.7904 8.34745 22.7644 8.3233 22.7429Z" fill="#292A2E"/>
<path id="Vector_24" d="M9.1933 54.4532C8.7848 54.1444 8.38562 53.8222 8.0063 53.4947C7.95665 53.4553 7.89366 53.4365 7.83051 53.4425C7.76737 53.4484 7.70897 53.4786 7.66754 53.5266C7.62611 53.5746 7.60487 53.6368 7.60826 53.7001C7.61166 53.7635 7.63942 53.823 7.68574 53.8664C8.07317 54.2007 8.48085 54.5298 8.89746 54.8446C8.94937 54.8839 9.01474 54.9009 9.07919 54.8919C9.14364 54.8829 9.20189 54.8487 9.24112 54.7968C9.28035 54.7449 9.29735 54.6795 9.28838 54.6151C9.27941 54.5506 9.24521 54.4924 9.1933 54.4532Z" fill="#292A2E"/>
<path id="Vector_25" d="M3.2676 47.5914C3.23766 47.5337 3.18601 47.4902 3.12399 47.4705C3.06198 47.4508 2.99468 47.4566 2.93691 47.4865C2.87914 47.5164 2.83562 47.5681 2.81594 47.6301C2.79625 47.6921 2.80202 47.7594 2.83195 47.8172C3.06983 48.2755 3.33122 48.7314 3.60842 49.1719C3.64308 49.227 3.69819 49.266 3.76161 49.2804C3.79301 49.2875 3.82551 49.2884 3.85725 49.283C3.88899 49.2775 3.91936 49.2659 3.94661 49.2487C3.97386 49.2316 3.99746 49.2092 4.01606 49.1829C4.03467 49.1567 4.04791 49.127 4.05505 49.0956C4.06218 49.0642 4.06305 49.0317 4.05762 48.9999C4.05219 48.9682 4.04057 48.9378 4.0234 48.9106C3.7535 48.4814 3.499 48.0376 3.2676 47.5914Z" fill="#292A2E"/>
<path id="Vector_26" d="M61.6733 62.6523C61.1613 62.6013 60.6489 62.5528 60.1361 62.5068C60.104 62.504 60.0717 62.5074 60.041 62.5171C60.0102 62.5267 59.9817 62.5423 59.9569 62.5629C59.9322 62.5836 59.9118 62.6089 59.8968 62.6375C59.8819 62.666 59.8727 62.6972 59.8699 62.7293C59.867 62.7614 59.8705 62.7938 59.8801 62.8245C59.8897 62.8552 59.9053 62.8838 59.926 62.9085C59.9466 62.9332 59.972 62.9537 60.0005 62.9686C60.0291 62.9835 60.0603 62.9927 60.0924 62.9956C60.6038 63.0412 61.1144 63.0896 61.6242 63.1407H61.649C61.7113 63.1397 61.771 63.1151 61.8159 63.0718C61.8608 63.0284 61.8875 62.9696 61.8906 62.9073C61.8937 62.845 61.873 62.7838 61.8326 62.7362C61.7922 62.6886 61.7353 62.6582 61.6733 62.6511V62.6523Z" fill="#292A2E"/>
<path id="Vector_27" d="M11.069 20.0379C11.0254 19.9897 10.9644 19.9607 10.8995 19.9574C10.8345 19.954 10.7709 19.9766 10.7225 20.0201C10.3375 20.3682 9.95701 20.7256 9.59147 21.0831C9.56843 21.1056 9.55004 21.1324 9.53736 21.162C9.52469 21.1917 9.51797 21.2235 9.51759 21.2557C9.51722 21.2879 9.5232 21.3199 9.53518 21.3498C9.54715 21.3797 9.5649 21.4069 9.58742 21.43C9.60993 21.453 9.63676 21.4714 9.66638 21.4841C9.69599 21.4968 9.72781 21.5035 9.76003 21.5039C9.79224 21.5042 9.82421 21.4983 9.85411 21.4863C9.88402 21.4743 9.91127 21.4565 9.93432 21.434C10.2954 21.0811 10.6711 20.7281 11.0512 20.384C11.0753 20.3626 11.0949 20.3366 11.1089 20.3075C11.1229 20.2785 11.1309 20.2469 11.1326 20.2147C11.1343 20.1825 11.1295 20.1503 11.1186 20.1199C11.1077 20.0896 11.0908 20.0617 11.069 20.0379Z" fill="#292A2E"/>
<path id="Vector_28" d="M42.3884 61.592L40.8451 61.547C40.8129 61.546 40.7809 61.5515 40.7508 61.5629C40.7207 61.5744 40.6931 61.5917 40.6697 61.6138C40.6463 61.6359 40.6274 61.6624 40.6143 61.6918C40.6011 61.7212 40.5938 61.7529 40.5929 61.7851C40.5919 61.8173 40.5974 61.8493 40.6088 61.8794C40.6203 61.9095 40.6376 61.9371 40.6597 61.9605C40.6818 61.9839 40.7083 62.0028 40.7377 62.016C40.7671 62.0291 40.7988 62.0364 40.831 62.0373L42.3738 62.0823H42.3811C42.4461 62.0833 42.5089 62.0584 42.5555 62.0131C42.6022 61.9678 42.6289 61.9058 42.6299 61.8408C42.6309 61.7758 42.606 61.713 42.5607 61.6663C42.5154 61.6197 42.4534 61.5929 42.3884 61.592Z" fill="#292A2E"/>
<path id="Vector_29" d="M99.7205 84.4043C99.7611 84.4042 99.801 84.394 99.8367 84.3747C99.8724 84.3554 99.9027 84.3275 99.925 84.2936C99.9473 84.2597 99.9608 84.2207 99.9644 84.1803C99.9679 84.1399 99.9614 84.0992 99.9454 84.0619C99.7428 83.591 99.5296 83.1152 99.3108 82.648C99.2972 82.6187 99.2779 82.5924 99.2541 82.5706C99.2303 82.5487 99.2025 82.5318 99.1721 82.5207C99.1418 82.5097 99.1096 82.5047 99.0773 82.5061C99.0451 82.5075 99.0134 82.5152 98.9841 82.5288C98.9549 82.5424 98.9286 82.5617 98.9068 82.5855C98.8849 82.6093 98.868 82.6371 98.8569 82.6675C98.8459 82.6978 98.8409 82.73 98.8423 82.7623C98.8437 82.7945 98.8514 82.8262 98.865 82.8555C99.0814 83.3187 99.2926 83.7896 99.4932 84.256C99.5123 84.3004 99.544 84.3381 99.5845 84.3644C99.6249 84.3908 99.6722 84.4047 99.7205 84.4043Z" fill="#292A2E"/>
<path id="Vector_30" d="M98.2962 115.717C98.2688 115.699 98.2383 115.688 98.2064 115.683C98.1745 115.678 98.142 115.679 98.1106 115.686C98.0792 115.694 98.0496 115.708 98.0236 115.727C97.9976 115.746 97.9756 115.77 97.959 115.798C97.6935 116.231 97.4155 116.665 97.1323 117.088C97.0989 117.142 97.0878 117.207 97.1013 117.27C97.1149 117.332 97.152 117.386 97.2048 117.421C97.2577 117.457 97.3222 117.47 97.3848 117.459C97.4473 117.448 97.5031 117.413 97.5404 117.361C97.8269 116.932 98.1077 116.493 98.3772 116.054C98.3943 116.026 98.4058 115.996 98.4109 115.964C98.4161 115.932 98.4149 115.9 98.4073 115.868C98.3998 115.837 98.3861 115.807 98.367 115.781C98.3479 115.755 98.3238 115.733 98.2962 115.717Z" fill="#292A2E"/>
<path id="Vector_31" d="M93.3543 121.917C93.0147 122.294 92.6621 122.671 92.3075 123.04C92.2852 123.064 92.2677 123.091 92.2559 123.121C92.2442 123.151 92.2384 123.183 92.2391 123.215C92.2397 123.247 92.2466 123.279 92.2595 123.309C92.2724 123.338 92.291 123.365 92.3142 123.387C92.3374 123.409 92.3648 123.427 92.3948 123.439C92.4247 123.451 92.4567 123.456 92.4889 123.456C92.5211 123.455 92.5529 123.448 92.5824 123.435C92.6119 123.422 92.6386 123.404 92.6609 123.38C93.0196 123.008 93.3754 122.626 93.7186 122.246C93.7402 122.222 93.7569 122.194 93.7676 122.163C93.7784 122.133 93.7831 122.101 93.7814 122.069C93.7797 122.036 93.7717 122.005 93.7579 121.976C93.744 121.947 93.7245 121.921 93.7006 121.899C93.6766 121.877 93.6487 121.861 93.6183 121.85C93.5879 121.839 93.5557 121.835 93.5235 121.836C93.4913 121.838 93.4598 121.846 93.4306 121.86C93.4015 121.874 93.3755 121.893 93.3539 121.917H93.3543Z" fill="#292A2E"/>
<path id="Vector_32" d="M97.8469 80.7911C97.8618 80.8197 97.8822 80.845 97.9068 80.8657C97.9315 80.8864 97.96 80.9021 97.9908 80.9118C98.0215 80.9215 98.0538 80.925 98.0859 80.9222C98.118 80.9194 98.1492 80.9103 98.1778 80.8954C98.2064 80.8805 98.2318 80.8602 98.2525 80.8355C98.2732 80.8108 98.2888 80.7823 98.2985 80.7516C98.3082 80.7209 98.3118 80.6885 98.3089 80.6564C98.3061 80.6243 98.297 80.5931 98.2822 80.5645C98.0463 80.1119 97.7999 79.6527 97.5487 79.2004C97.5171 79.1436 97.4643 79.1016 97.4018 79.0837C97.3392 79.0658 97.2722 79.0735 97.2153 79.105C97.1585 79.1365 97.1165 79.1894 97.0986 79.2519C97.0807 79.3144 97.0883 79.3815 97.1199 79.4383C97.3687 79.8869 97.6135 80.342 97.8469 80.7911Z" fill="#292A2E"/>
<path id="Vector_33" d="M92.7436 73.1315C92.6952 73.0879 92.6315 73.0653 92.5665 73.0687C92.5015 73.0721 92.4404 73.1011 92.3969 73.1495C92.3533 73.1979 92.3307 73.2616 92.3341 73.3266C92.3375 73.3916 92.3665 73.4526 92.4149 73.4962C92.7946 73.8395 93.1646 74.1949 93.5135 74.5527C93.536 74.5758 93.5628 74.5941 93.5924 74.6068C93.622 74.6195 93.6538 74.6262 93.686 74.6266C93.7182 74.627 93.7502 74.6211 93.78 74.6091C93.8099 74.5972 93.8372 74.5794 93.8602 74.557C93.8833 74.5345 93.9017 74.5077 93.9144 74.4781C93.927 74.4485 93.9338 74.4167 93.9342 74.3845C93.9346 74.3523 93.9286 74.3204 93.9167 74.2905C93.9047 74.2606 93.887 74.2333 93.8645 74.2103C93.5083 73.8447 93.1314 73.482 92.7436 73.1315Z" fill="#292A2E"/>
<path id="Vector_34" d="M96.1426 118.915C96.0906 118.876 96.0253 118.859 95.9609 118.868C95.8965 118.877 95.8382 118.911 95.7989 118.962C95.495 119.365 95.1764 119.773 94.8526 120.17C94.8323 120.195 94.8171 120.223 94.8079 120.254C94.7987 120.285 94.7956 120.317 94.7989 120.35C94.8022 120.382 94.8118 120.413 94.8271 120.441C94.8424 120.469 94.8631 120.494 94.8881 120.515C94.9131 120.535 94.9418 120.55 94.9727 120.559C95.0036 120.569 95.0359 120.572 95.068 120.568C95.1 120.565 95.1311 120.556 95.1594 120.54C95.1878 120.525 95.2128 120.504 95.2332 120.479C95.5606 120.076 95.8816 119.666 96.1904 119.258C96.2101 119.233 96.2245 119.203 96.2328 119.172C96.241 119.141 96.243 119.108 96.2386 119.076C96.2341 119.044 96.2233 119.014 96.2068 118.986C96.1904 118.958 96.1685 118.934 96.1426 118.915Z" fill="#292A2E"/>
<path id="Vector_35" d="M95.4081 75.958C95.3676 75.907 95.3086 75.8742 95.244 75.8668C95.1793 75.8594 95.1144 75.878 95.0634 75.9185C95.0125 75.9589 94.9797 76.018 94.9723 76.0826C94.9649 76.1472 94.9835 76.2122 95.0239 76.2631C95.3396 76.6607 95.6444 77.0736 95.9297 77.489C95.9479 77.5156 95.9712 77.5384 95.9982 77.556C96.0252 77.5736 96.0555 77.5857 96.0872 77.5917C96.1189 77.5976 96.1514 77.5972 96.183 77.5906C96.2146 77.5839 96.2445 77.5711 96.2711 77.5529C96.2977 77.5346 96.3205 77.5113 96.3381 77.4843C96.3557 77.4573 96.3678 77.4271 96.3737 77.3954C96.3797 77.3637 96.3793 77.3311 96.3726 77.2995C96.366 77.268 96.3532 77.238 96.3349 77.2114C96.0407 76.7863 95.7287 76.3644 95.4081 75.958Z" fill="#292A2E"/>
<path id="Vector_36" d="M102.971 101.181C102.939 101.178 102.907 101.182 102.876 101.192C102.845 101.202 102.817 101.218 102.792 101.239C102.768 101.26 102.748 101.286 102.733 101.314C102.719 101.343 102.711 101.375 102.708 101.407C102.671 101.915 102.621 102.427 102.559 102.928C102.554 102.96 102.556 102.993 102.565 103.024C102.573 103.055 102.588 103.084 102.608 103.11C102.628 103.135 102.652 103.157 102.68 103.172C102.709 103.188 102.74 103.198 102.772 103.202C102.782 103.203 102.792 103.203 102.802 103.202C102.862 103.202 102.919 103.18 102.964 103.141C103.009 103.101 103.038 103.046 103.045 102.987C103.108 102.477 103.16 101.957 103.198 101.441C103.2 101.409 103.196 101.377 103.186 101.346C103.176 101.316 103.16 101.288 103.139 101.264C103.118 101.239 103.092 101.22 103.063 101.205C103.034 101.191 103.003 101.183 102.971 101.181Z" fill="#292A2E"/>
<path id="Vector_37" d="M103.243 97.5606C103.242 97.5282 103.235 97.4965 103.221 97.4671C103.208 97.4378 103.188 97.4115 103.164 97.3898C103.14 97.3681 103.112 97.3516 103.081 97.3411C103.051 97.3306 103.018 97.3264 102.986 97.3288C102.954 97.3301 102.922 97.3379 102.893 97.3515C102.864 97.3652 102.838 97.3846 102.816 97.4085C102.794 97.4324 102.778 97.4604 102.767 97.4908C102.756 97.5212 102.752 97.5535 102.754 97.5857C102.778 98.0955 102.791 98.6102 102.791 99.1159C102.791 99.181 102.817 99.2433 102.863 99.2893C102.909 99.3353 102.971 99.3611 103.036 99.3611C103.101 99.3611 103.164 99.3353 103.21 99.2893C103.256 99.2433 103.282 99.181 103.282 99.1159C103.282 98.6009 103.27 98.0781 103.243 97.5606Z" fill="#292A2E"/>
<path id="Vector_38" d="M102.48 104.999C102.448 104.993 102.416 104.992 102.384 104.998C102.352 105.005 102.322 105.017 102.295 105.035C102.268 105.053 102.245 105.076 102.227 105.103C102.209 105.13 102.197 105.16 102.191 105.191C102.091 105.687 101.977 106.189 101.852 106.682C101.836 106.745 101.846 106.812 101.879 106.868C101.912 106.924 101.966 106.964 102.029 106.98C102.049 106.985 102.069 106.988 102.09 106.988C102.144 106.988 102.197 106.97 102.24 106.936C102.283 106.903 102.314 106.856 102.328 106.803C102.454 106.302 102.571 105.792 102.672 105.288C102.679 105.256 102.679 105.224 102.673 105.192C102.667 105.16 102.654 105.13 102.636 105.103C102.619 105.077 102.595 105.054 102.569 105.036C102.542 105.018 102.512 105.005 102.48 104.999Z" fill="#292A2E"/>
<path id="Vector_39" d="M101.096 88.0076C101.123 88.0076 101.149 88.0033 101.174 87.9946C101.205 87.9846 101.233 87.9687 101.257 87.9476C101.282 87.9266 101.302 87.9009 101.316 87.872C101.331 87.8432 101.339 87.8117 101.341 87.7796C101.343 87.7474 101.339 87.7151 101.329 87.6846C101.167 87.2011 100.994 86.7092 100.812 86.222C100.79 86.1611 100.744 86.1117 100.685 86.0847C100.625 86.0576 100.558 86.0552 100.497 86.078C100.436 86.1007 100.387 86.1467 100.36 86.2059C100.333 86.265 100.33 86.3325 100.353 86.3935C100.532 86.8753 100.704 87.3616 100.863 87.8398C100.88 87.8886 100.911 87.931 100.953 87.9611C100.995 87.9912 101.045 88.0075 101.096 88.0076Z" fill="#292A2E"/>
<path id="Vector_40" d="M100.105 112.313C100.076 112.299 100.044 112.291 100.012 112.289C99.9801 112.288 99.9479 112.293 99.9175 112.304C99.8872 112.314 99.8593 112.331 99.8354 112.353C99.8116 112.375 99.7923 112.401 99.7786 112.43C99.563 112.888 99.3328 113.349 99.0949 113.8C99.0646 113.857 99.0584 113.925 99.0776 113.987C99.0968 114.049 99.1399 114.101 99.1974 114.131C99.2259 114.146 99.2571 114.156 99.2892 114.159C99.3213 114.162 99.3537 114.158 99.3845 114.149C99.4152 114.139 99.4438 114.124 99.4686 114.103C99.4934 114.083 99.5139 114.057 99.5289 114.029C99.7721 113.571 100.003 113.104 100.222 112.639C100.236 112.61 100.244 112.578 100.246 112.546C100.247 112.514 100.242 112.482 100.231 112.452C100.221 112.421 100.204 112.393 100.182 112.369C100.161 112.346 100.134 112.326 100.105 112.313Z" fill="#292A2E"/>
<path id="Vector_41" d="M101.516 108.728C101.485 108.718 101.453 108.713 101.42 108.715C101.388 108.717 101.357 108.726 101.328 108.74C101.299 108.755 101.273 108.775 101.252 108.799C101.231 108.824 101.215 108.852 101.205 108.883C101.043 109.362 100.87 109.845 100.685 110.322C100.662 110.382 100.663 110.45 100.689 110.509C100.715 110.569 100.764 110.615 100.825 110.639C100.885 110.663 100.953 110.661 101.012 110.635C101.072 110.609 101.119 110.56 101.142 110.499C101.33 110.016 101.507 109.524 101.669 109.041C101.68 109.01 101.684 108.978 101.682 108.945C101.68 108.913 101.672 108.881 101.657 108.852C101.643 108.823 101.623 108.797 101.599 108.776C101.575 108.755 101.546 108.738 101.516 108.728Z" fill="#292A2E"/>
<path id="Vector_42" d="M65.509 63.0893C64.9987 63.0236 64.487 62.9608 63.9739 62.9008C63.9114 62.897 63.8497 62.9173 63.8017 62.9576C63.7536 62.9978 63.7228 63.0549 63.7155 63.1172C63.7083 63.1794 63.7251 63.2421 63.7626 63.2923C63.8001 63.3425 63.8554 63.3765 63.9172 63.3872C64.4283 63.4471 64.938 63.5098 65.4462 63.5752C65.4567 63.5758 65.4673 63.5758 65.4778 63.5752C65.5407 63.576 65.6015 63.5527 65.6476 63.5099C65.6938 63.4672 65.7217 63.4084 65.7257 63.3457C65.7297 63.2829 65.7095 63.221 65.6692 63.1728C65.6288 63.1245 65.5715 63.0936 65.509 63.0865V63.0893Z" fill="#292A2E"/>
<path id="Vector_43" d="M78.2657 133.687C77.815 133.939 77.3591 134.185 76.9113 134.42C76.8537 134.45 76.8105 134.502 76.7911 134.564C76.7718 134.626 76.7779 134.694 76.8082 134.751C76.8384 134.809 76.8903 134.852 76.9525 134.871C77.0146 134.891 77.0819 134.885 77.1395 134.854C77.5905 134.617 78.0501 134.368 78.5044 134.116C78.5325 134.1 78.5573 134.079 78.5772 134.054C78.5972 134.028 78.612 133.999 78.6208 133.968C78.6297 133.938 78.6323 133.905 78.6286 133.873C78.6248 133.841 78.6149 133.81 78.5992 133.782C78.5835 133.754 78.5625 133.729 78.5372 133.709C78.512 133.689 78.483 133.674 78.4521 133.666C78.4211 133.657 78.3887 133.654 78.3567 133.658C78.3247 133.662 78.2938 133.672 78.2657 133.687Z" fill="#292A2E"/>
<path id="Vector_44" d="M80.5303 66.8679C80.5886 66.8685 80.6453 66.8482 80.69 66.8108C80.7348 66.7734 80.7647 66.7213 80.7745 66.6638C80.7842 66.6063 80.7732 66.5472 80.7433 66.4971C80.7134 66.447 80.6666 66.4092 80.6114 66.3905C80.1303 66.226 79.6347 66.0643 79.1379 65.9099C79.1068 65.8992 79.0738 65.8948 79.041 65.8971C79.0082 65.8993 78.9762 65.9081 78.9468 65.923C78.9175 65.9379 78.8914 65.9585 78.8702 65.9836C78.849 66.0087 78.833 66.0379 78.8233 66.0693C78.8135 66.1007 78.8102 66.1338 78.8135 66.1665C78.8167 66.1992 78.8266 66.231 78.8423 66.2598C78.8581 66.2887 78.8795 66.3141 78.9053 66.3345C78.9311 66.355 78.9607 66.37 78.9924 66.3788C79.4848 66.5316 79.9763 66.6916 80.4513 66.8545C80.4767 66.8633 80.5034 66.8678 80.5303 66.8679Z" fill="#292A2E"/>
<path id="Vector_45" d="M77.0765 65.5645C77.0851 65.5334 77.0875 65.5009 77.0834 65.4689C77.0794 65.4369 77.069 65.4061 77.0529 65.3781C77.0368 65.3502 77.0153 65.3257 76.9896 65.3062C76.964 65.2866 76.9347 65.2724 76.9035 65.2642C76.4115 65.1321 75.9065 65.0028 75.404 64.88C75.3408 64.8646 75.2741 64.8749 75.2185 64.9087C75.1629 64.9425 75.123 64.997 75.1076 65.0602C75.0922 65.1234 75.1025 65.1901 75.1363 65.2457C75.17 65.3013 75.2245 65.3412 75.2877 65.3566C75.7878 65.4782 76.2891 65.6071 76.7774 65.738C76.8086 65.7466 76.8411 65.7489 76.8731 65.7448C76.9051 65.7407 76.936 65.7303 76.9639 65.7142C76.9919 65.698 77.0164 65.6765 77.0359 65.6508C77.0554 65.6251 77.0697 65.5958 77.0777 65.5645H77.0765Z" fill="#292A2E"/>
<path id="Vector_46" d="M73.1381 64.3646C72.6417 64.2597 72.1311 64.1567 71.6209 64.0591C71.557 64.0468 71.4908 64.0605 71.437 64.097C71.3831 64.1335 71.346 64.1899 71.3337 64.2538C71.3215 64.3177 71.3351 64.3838 71.3716 64.4377C71.4081 64.4915 71.4646 64.5287 71.5285 64.5409C72.0358 64.6382 72.5416 64.7403 73.0368 64.8445C73.1004 64.8579 73.1668 64.8455 73.2213 64.81C73.2758 64.7745 73.314 64.7188 73.3274 64.6552C73.3408 64.5916 73.3284 64.5252 73.2929 64.4707C73.2574 64.4162 73.2018 64.3781 73.1381 64.3646Z" fill="#292A2E"/>
<path id="Vector_47" d="M81.5693 131.717C81.1402 131.991 80.7001 132.264 80.2616 132.528C80.2157 132.556 80.1801 132.598 80.1603 132.647C80.1406 132.697 80.1377 132.752 80.1521 132.804C80.1666 132.855 80.1975 132.901 80.2403 132.933C80.283 132.966 80.3352 132.983 80.3888 132.983C80.4335 132.983 80.4772 132.971 80.5153 132.947C80.9574 132.68 81.4003 132.405 81.8328 132.13C81.8876 132.095 81.9264 132.04 81.9405 131.976C81.9546 131.913 81.9429 131.846 81.9079 131.791C81.873 131.736 81.8177 131.698 81.7542 131.684C81.6907 131.669 81.6242 131.681 81.5693 131.716V131.717Z" fill="#292A2E"/>
<path id="Vector_48" d="M69.3352 63.6521C68.8384 63.571 68.3221 63.4899 67.807 63.4109C67.7425 63.4013 67.6768 63.4176 67.6244 63.4564C67.5719 63.4951 67.5371 63.5531 67.5274 63.6176C67.5177 63.6821 67.534 63.7478 67.5728 63.8002C67.6116 63.8527 67.6696 63.8876 67.7341 63.8972C68.2487 63.9746 68.7606 64.0553 69.255 64.1371C69.2684 64.1396 69.2819 64.1408 69.2955 64.1408C69.3558 64.1389 69.4133 64.115 69.457 64.0735C69.5008 64.032 69.5277 63.9758 69.5327 63.9157C69.5377 63.8556 69.5205 63.7958 69.4842 63.7476C69.4479 63.6994 69.3952 63.6663 69.336 63.6545L69.3352 63.6521Z" fill="#292A2E"/>
<path id="Vector_49" d="M87.7938 127.208C87.4011 127.533 86.9979 127.857 86.5951 128.171C86.5438 128.211 86.5106 128.27 86.5028 128.335C86.4949 128.399 86.513 128.464 86.5531 128.516C86.5932 128.567 86.652 128.6 86.7165 128.608C86.7811 128.616 86.8462 128.598 86.8974 128.557C87.3026 128.24 87.7079 127.913 88.1058 127.587C88.156 127.545 88.1877 127.486 88.194 127.421C88.2002 127.356 88.1805 127.292 88.1391 127.242C88.0977 127.191 88.0381 127.16 87.9733 127.153C87.9086 127.147 87.844 127.167 87.7938 127.208Z" fill="#292A2E"/>
<path id="Vector_50" d="M90.6718 124.664C90.3071 125.012 89.9249 125.363 89.5424 125.705C89.4972 125.75 89.4709 125.81 89.4689 125.873C89.4668 125.936 89.4892 125.997 89.5314 126.044C89.5735 126.091 89.6322 126.12 89.6952 126.125C89.7582 126.13 89.8206 126.11 89.8694 126.07C90.2556 125.725 90.6394 125.371 91.0098 125.019C91.057 124.974 91.0844 124.912 91.0861 124.847C91.0878 124.782 91.0635 124.719 91.0187 124.672C90.9739 124.625 90.9122 124.597 90.8471 124.596C90.782 124.594 90.719 124.618 90.6718 124.663V124.664Z" fill="#292A2E"/>
<path id="Vector_51" d="M90.7964 72.0905C90.8485 72.0918 90.8995 72.0764 90.9422 72.0465C90.9848 72.0167 91.0167 71.9739 91.0332 71.9246C91.0497 71.8752 91.0499 71.8219 91.0339 71.7724C91.0178 71.7229 90.9863 71.6798 90.944 71.6496C90.5387 71.3436 90.1112 71.0417 89.6767 70.7491C89.6503 70.7279 89.6197 70.7124 89.587 70.7037C89.5542 70.6949 89.52 70.693 89.4865 70.6981C89.453 70.7032 89.4209 70.7152 89.3923 70.7334C89.3637 70.7515 89.3391 70.7754 89.3202 70.8035C89.3012 70.8316 89.2883 70.8633 89.2823 70.8966C89.2762 70.93 89.2771 70.9642 89.285 70.9972C89.2928 71.0302 89.3074 71.0611 89.3278 71.0882C89.3482 71.1152 89.374 71.1378 89.4036 71.1543C89.8307 71.4409 90.2498 71.7387 90.6489 72.0394C90.6912 72.0722 90.743 72.0901 90.7964 72.0905Z" fill="#292A2E"/>
<path id="Vector_52" d="M84.7495 129.557C84.3402 129.853 83.9171 130.152 83.4932 130.444C83.4395 130.481 83.4026 130.537 83.3906 130.601C83.3787 130.665 83.3927 130.732 83.4296 130.785C83.4664 130.839 83.5231 130.876 83.5872 130.888C83.6513 130.9 83.7175 130.886 83.7712 130.849C84.1992 130.555 84.6255 130.254 85.038 129.957C85.0907 129.919 85.126 129.862 85.1363 129.798C85.1466 129.733 85.1309 129.668 85.0927 129.615C85.0546 129.562 84.9971 129.527 84.9328 129.517C84.8686 129.506 84.803 129.522 84.7503 129.56L84.7495 129.557Z" fill="#292A2E"/>
<path id="Vector_53" d="M87.5731 69.9826C87.6272 69.9825 87.6798 69.9645 87.7226 69.9315C87.7655 69.8985 87.7963 69.8522 87.8101 69.7999C87.824 69.7476 87.8202 69.6922 87.7993 69.6422C87.7784 69.5923 87.7416 69.5507 87.6947 69.5238C87.2542 69.2734 86.7942 69.0253 86.3282 68.7866C86.2702 68.757 86.2029 68.7516 86.141 68.7717C86.0791 68.7917 86.0277 68.8355 85.9981 68.8934C85.9685 68.9514 85.9631 69.0187 85.9831 69.0806C86.0031 69.1425 86.0469 69.1939 86.1049 69.2235C86.5644 69.4586 87.0179 69.7033 87.4523 69.9505C87.4892 69.9714 87.5308 69.9825 87.5731 69.9826Z" fill="#292A2E"/>
<path id="Vector_54" d="M84.1257 68.2615C84.1834 68.2642 84.2401 68.2462 84.2858 68.2109C84.3314 68.1756 84.363 68.1252 84.3749 68.0687C84.3868 68.0122 84.3782 67.9534 84.3507 67.9026C84.3231 67.8519 84.2785 67.8126 84.2246 67.7918C83.7606 67.5892 83.2788 67.3866 82.7929 67.1945C82.7328 67.1726 82.6666 67.1751 82.6083 67.2012C82.5501 67.2274 82.5043 67.2753 82.4807 67.3347C82.4571 67.394 82.4576 67.4603 82.4821 67.5193C82.5065 67.5783 82.553 67.6255 82.6117 67.6508C83.0927 67.8413 83.5689 68.0398 84.0277 68.2408C84.0586 68.2545 84.092 68.2615 84.1257 68.2615Z" fill="#292A2E"/>
<path id="Vector_55" d="M13.1176 18.009C12.9114 18.1711 12.7076 18.3332 12.5061 18.4953C12.481 18.5155 12.4602 18.5405 12.4448 18.5688C12.4294 18.5971 12.4198 18.6282 12.4164 18.6602C12.413 18.6922 12.416 18.7246 12.4251 18.7555C12.4342 18.7863 12.4493 18.8151 12.4696 18.8402C12.4898 18.8652 12.5148 18.886 12.5431 18.9014C12.5714 18.9168 12.6024 18.9264 12.6345 18.9298C12.6665 18.9332 12.6989 18.9303 12.7298 18.9211C12.7606 18.912 12.7894 18.8969 12.8145 18.8766C13.0138 18.7145 13.2155 18.5542 13.4195 18.3956C13.4449 18.3758 13.4661 18.3512 13.482 18.3231C13.4979 18.2951 13.508 18.2642 13.512 18.2322C13.5159 18.2003 13.5135 18.1678 13.5049 18.1368C13.4963 18.1058 13.4817 18.0767 13.4619 18.0513C13.442 18.026 13.4174 18.0047 13.3894 17.9889C13.3613 17.973 13.3305 17.9628 13.2985 17.9589C13.2665 17.9549 13.2341 17.9573 13.2031 17.9659C13.172 17.9745 13.143 17.9892 13.1176 18.009Z" fill="#292A2E"/>
</g>
<g id="Group_3">
<path id="Vector_56" d="M11.998 10.9258L13.0667 18.7642L40.1459 0.236328L11.998 10.9258Z" fill="url(#paint0_linear_1203_16236)"/>
<path id="Vector_57" opacity="0.2" d="M11.998 10.9258L13.0667 18.7642L40.1459 0.236328L11.998 10.9258Z" fill="#0A0A0A"/>
<path id="Vector_58" d="M13.7795 13.0638L13.0667 18.7645L33.7327 4.15625L13.7795 13.0638Z" fill="url(#paint1_linear_1203_16236)"/>
<path id="Vector_59" opacity="0.1" d="M13.7795 13.0638L13.0667 18.7645L33.7327 4.15625L13.7795 13.0638Z" fill="#0A0A0A"/>
<path id="Vector_60" d="M8.7915 7.00613L40.1462 0.236328L20.193 21.971L13.7798 13.0635L40.1462 0.236328L11.9983 10.9258L8.7915 7.00613Z" fill="url(#paint2_linear_1203_16236)"/>
</g>
</g>
<defs>
<linearGradient id="paint0_linear_1203_16236" x1="26.072" y1="0.236328" x2="26.072" y2="18.7642" gradientUnits="userSpaceOnUse">
<stop stop-color="#FFD500"/>
<stop offset="1" stop-color="#FF2800"/>
</linearGradient>
<linearGradient id="paint1_linear_1203_16236" x1="23.3997" y1="4.15625" x2="23.3997" y2="18.7645" gradientUnits="userSpaceOnUse">
<stop stop-color="#FFD500"/>
<stop offset="1" stop-color="#FF2800"/>
</linearGradient>
<linearGradient id="paint2_linear_1203_16236" x1="24.4688" y1="0.236328" x2="24.4688" y2="21.971" gradientUnits="userSpaceOnUse">
<stop stop-color="#FFD500"/>
<stop offset="1" stop-color="#FF2800"/>
</linearGradient>
</defs>
</svg>
