<svg width="30" height="30" viewBox="0 0 30 30" fill="none" xmlns="http://www.w3.org/2000/svg">
<g id="Group 8320">
<g id="Group 8319">
<circle id="Ellipse 197" cx="15" cy="15" r="15" fill="#ECEDF1"/>
</g>
<path id="Vector" d="M20.7533 9.17969C19.3504 7.77344 17.4821 7 15.4967 7C11.3984 7 8.06362 10.3348 8.06362 14.433C8.06362 15.7422 8.40513 17.0212 9.05469 18.1496L8 22L11.9408 20.9654C13.0257 21.558 14.2478 21.8694 15.4933 21.8694H15.4967C19.5915 21.8694 23 18.5346 23 14.4364C23 12.4509 22.1562 10.5859 20.7533 9.17969ZM15.4967 20.6172C14.385 20.6172 13.2969 20.3192 12.3493 19.7567L12.125 19.6228L9.78795 20.2355L10.4107 17.9554L10.2634 17.721C9.64397 16.7366 9.3192 15.6016 9.3192 14.433C9.3192 11.0279 12.0915 8.25558 15.5 8.25558C17.1507 8.25558 18.7009 8.89844 19.8661 10.067C21.0312 11.2355 21.7478 12.7857 21.7444 14.4364C21.7444 17.8449 18.9018 20.6172 15.4967 20.6172ZM18.885 15.99C18.7009 15.8962 17.7868 15.4475 17.6161 15.3873C17.4453 15.3237 17.3214 15.2935 17.1975 15.481C17.0737 15.6685 16.7188 16.0837 16.6083 16.2109C16.5011 16.3348 16.3906 16.3516 16.2065 16.2578C15.115 15.7121 14.3984 15.2835 13.6786 14.048C13.4877 13.7199 13.8694 13.7433 14.2243 13.0335C14.2846 12.9096 14.2545 12.8025 14.2076 12.7087C14.1607 12.615 13.7891 11.7009 13.635 11.3292C13.4844 10.9676 13.3304 11.0179 13.2165 11.0112C13.1094 11.0045 12.9855 11.0045 12.8616 11.0045C12.7377 11.0045 12.5368 11.0513 12.3661 11.2355C12.1953 11.423 11.7165 11.8717 11.7165 12.7857C11.7165 13.6998 12.3828 14.5837 12.4732 14.7076C12.567 14.8315 13.7824 16.7065 15.6473 17.5134C16.8259 18.0223 17.2879 18.0658 17.8772 17.9788C18.2355 17.9252 18.9754 17.5301 19.1295 17.0949C19.2835 16.6596 19.2835 16.2879 19.2366 16.2109C19.1931 16.1272 19.0692 16.0804 18.885 15.99Z" fill="#686E7F"/>
</g>
</svg>
